<?xml version="1.0" encoding="UTF-8"?>
<svg xmlns="http://www.w3.org/2000/svg" xmlns:xlink="http://www.w3.org/1999/xlink" width="50px" height="30px" viewBox="0 0 30 30" version="1.1">
<defs>
<clipPath id="clip1">
  <path d="M 7.679688 7.546875 L 17.839844 7.546875 L 17.839844 18.640625 L 7.679688 18.640625 Z M 7.679688 7.546875 "/>
</clipPath>
<clipPath id="clip2">
  <path d="M 5.433594 14 L 29.972656 14 L 29.972656 22.425781 L 5.433594 22.425781 Z M 5.433594 14 "/>
</clipPath>
</defs>
<g id="surface1">
<rect x="0" y="0" width="30" height="30" style="fill:rgb(10.980392%,9.803922%,10.196079%);fill-opacity:1;stroke:none;"/>
<g clip-path="url(#clip1)" clip-rule="nonzero">
<path style=" stroke:none;fill-rule:nonzero;fill:rgb(96.470588%,90.588236%,84.705883%);fill-opacity:1;" d="M 12.835938 15.511719 L 14.046875 13.410156 L 14.84375 14.789062 C 15.785156 14.496094 16.773438 14.242188 17.796875 14.039062 L 14.046875 7.546875 L 9.742188 15 L 7.683594 18.566406 C 9.082031 17.363281 10.828125 16.328125 12.835938 15.511719 "/>
</g>
<g clip-path="url(#clip2)" clip-rule="nonzero">
<path style=" stroke:none;fill-rule:nonzero;fill:rgb(94.509804%,28.627452%,0.784314%);fill-opacity:1;" d="M 27.433594 14.179688 C 17.3125 13.324219 8.078125 16.894531 5.4375 22.453125 L 8.824219 22.453125 C 10.601562 20.402344 13.144531 18.578125 16.230469 17.195312 L 16.765625 18.125 L 19.265625 22.453125 L 22.65625 22.453125 L 19 16.125 C 20.746094 15.546875 22.621094 15.101562 24.59375 14.820312 C 26.441406 14.554688 28.253906 14.453125 29.992188 14.492188 C 29.15625 14.359375 28.304688 14.253906 27.433594 14.179688 "/>
</g>
</g>
</svg>
