<svg xmlns="http://www.w3.org/2000/svg" xmlns:xlink="http://www.w3.org/1999/xlink" width="1124" zoomAndPan="magnify" viewBox="0 0 842.88 549.000006" height="732" preserveAspectRatio="xMidYMid meet" version="1.0"><defs><clipPath id="5cbe9da74f"><path d="M 0.707031 0 L 842.054688 0 L 842.054688 548 L 0.707031 548 Z M 0.707031 0 " clip-rule="nonzero"/></clipPath><clipPath id="6c21b00b26"><path d="M 387 28.4375 L 450 28.4375 L 450 89 L 387 89 Z M 387 28.4375 " clip-rule="nonzero"/></clipPath><clipPath id="2654e67d7b"><path d="M 175.878906 240 L 239 240 L 239 301 L 175.878906 301 Z M 175.878906 240 " clip-rule="nonzero"/></clipPath><clipPath id="8bd3421b37"><path d="M 387 459 L 450 459 L 450 519.542969 L 387 519.542969 Z M 387 459 " clip-rule="nonzero"/></clipPath><clipPath id="b1f8394621"><path d="M 604 240 L 666.984375 240 L 666.984375 301 L 604 301 Z M 604 240 " clip-rule="nonzero"/></clipPath><clipPath id="69fcbaa747"><path d="M 389.941406 105 L 452.824219 105 L 452.824219 175.3125 L 389.941406 175.3125 Z M 389.941406 105 " clip-rule="nonzero"/></clipPath></defs><g clip-path="url(#5cbe9da74f)"><path fill="#ffffff" d="M 0.707031 0 L 842.171875 0 L 842.171875 548 L 0.707031 548 Z M 0.707031 0 " fill-opacity="1" fill-rule="nonzero"/><path fill="#f6ece3" d="M 0.707031 0 L 842.171875 0 L 842.171875 548 L 0.707031 548 Z M 0.707031 0 " fill-opacity="1" fill-rule="nonzero"/></g><g clip-path="url(#6c21b00b26)"><path fill="#f33d00" d="M 416.898438 29.628906 C 417.070312 29 417.640625 28.566406 418.285156 28.566406 C 418.933594 28.566406 419.5 29 419.667969 29.628906 L 425.628906 51.304688 L 447.964844 50.308594 C 448.613281 50.28125 449.199219 50.6875 449.398438 51.304688 C 449.59375 51.921875 449.359375 52.601562 448.824219 52.957031 L 430.167969 65.359375 L 438.015625 86.421875 C 438.242188 87.027344 438.035156 87.714844 437.511719 88.097656 C 436.988281 88.476562 436.277344 88.460938 435.773438 88.054688 L 418.285156 74.042969 L 400.796875 88.054688 C 400.292969 88.460938 399.582031 88.476562 399.058594 88.097656 C 398.535156 87.714844 398.328125 87.027344 398.558594 86.421875 L 406.402344 65.359375 L 387.75 52.957031 C 387.210938 52.601562 386.976562 51.921875 387.171875 51.304688 C 387.375 50.6875 387.960938 50.28125 388.605469 50.308594 L 410.941406 51.304688 L 416.898438 29.628906 " fill-opacity="1" fill-rule="evenodd"/></g><path fill="#f33d00" d="M 311.347656 58.078125 C 311.515625 57.453125 312.085938 57.019531 312.730469 57.019531 C 313.378906 57.019531 313.945312 57.453125 314.117188 58.078125 L 320.078125 79.757812 L 342.414062 78.757812 C 343.058594 78.730469 343.644531 79.136719 343.84375 79.757812 C 344.042969 80.375 343.808594 81.050781 343.269531 81.410156 L 324.613281 93.808594 L 332.460938 114.871094 C 332.6875 115.480469 332.480469 116.164062 331.957031 116.550781 C 331.433594 116.929688 330.726562 116.914062 330.21875 116.507812 L 312.730469 102.496094 L 295.242188 116.507812 C 294.738281 116.914062 294.027344 116.929688 293.503906 116.550781 C 292.984375 116.164062 292.777344 115.480469 293 114.871094 L 300.847656 93.808594 L 282.195312 81.410156 C 281.65625 81.050781 281.421875 80.375 281.621094 79.757812 C 281.820312 79.136719 282.40625 78.730469 283.050781 78.757812 L 305.386719 79.757812 L 311.347656 58.078125 " fill-opacity="1" fill-rule="evenodd"/><path fill="#f33d00" d="M 234.074219 135.808594 C 234.25 135.183594 234.816406 134.75 235.460938 134.75 C 236.109375 134.75 236.675781 135.183594 236.84375 135.808594 L 242.804688 157.488281 L 265.140625 156.492188 C 265.789062 156.460938 266.371094 156.871094 266.570312 157.488281 C 266.769531 158.109375 266.535156 158.78125 266 159.140625 L 247.34375 171.542969 L 255.1875 192.601562 C 255.414062 193.214844 255.210938 193.898438 254.6875 194.277344 C 254.164062 194.664062 253.453125 194.644531 252.945312 194.242188 L 235.460938 180.226562 L 217.972656 194.242188 C 217.464844 194.644531 216.753906 194.664062 216.234375 194.277344 C 215.710938 193.898438 215.503906 193.214844 215.734375 192.601562 L 223.578125 171.542969 L 204.925781 159.140625 C 204.386719 158.78125 204.148438 158.109375 204.347656 157.488281 C 204.550781 156.871094 205.136719 156.460938 205.777344 156.492188 L 228.117188 157.488281 L 234.074219 135.808594 " fill-opacity="1" fill-rule="evenodd"/><g clip-path="url(#2654e67d7b)"><path fill="#f33d00" d="M 205.792969 241.996094 C 205.964844 241.367188 206.53125 240.933594 207.179688 240.933594 C 207.824219 240.933594 208.390625 241.367188 208.5625 241.996094 L 214.523438 263.671875 L 236.859375 262.675781 C 237.503906 262.648438 238.089844 263.054688 238.289062 263.671875 C 238.488281 264.289062 238.253906 264.964844 237.710938 265.324219 L 219.058594 277.722656 L 226.90625 298.789062 C 227.132812 299.394531 226.925781 300.082031 226.40625 300.464844 C 225.882812 300.847656 225.171875 300.832031 224.667969 300.425781 L 207.179688 286.410156 L 189.691406 300.425781 C 189.183594 300.832031 188.472656 300.847656 187.949219 300.464844 C 187.429688 300.082031 187.222656 299.394531 187.449219 298.789062 L 195.292969 277.722656 L 176.640625 265.324219 C 176.101562 264.964844 175.867188 264.289062 176.066406 263.671875 C 176.265625 263.054688 176.851562 262.648438 177.496094 262.675781 L 199.832031 263.671875 L 205.792969 241.996094 " fill-opacity="1" fill-rule="evenodd"/></g><path fill="#f33d00" d="M 234.074219 348.179688 C 234.25 347.550781 234.816406 347.117188 235.460938 347.117188 C 236.109375 347.117188 236.675781 347.550781 236.84375 348.179688 L 242.804688 369.855469 L 265.140625 368.859375 C 265.789062 368.832031 266.371094 369.238281 266.570312 369.855469 C 266.769531 370.476562 266.535156 371.152344 266 371.507812 L 247.34375 383.910156 L 255.1875 404.972656 C 255.414062 405.582031 255.210938 406.265625 254.6875 406.648438 C 254.164062 407.027344 253.453125 407.011719 252.945312 406.609375 L 235.460938 392.59375 L 217.972656 406.609375 C 217.464844 407.011719 216.753906 407.027344 216.234375 406.648438 C 215.710938 406.265625 215.503906 405.582031 215.734375 404.972656 L 223.578125 383.910156 L 204.925781 371.507812 C 204.386719 371.152344 204.148438 370.476562 204.347656 369.855469 C 204.550781 369.238281 205.136719 368.832031 205.777344 368.859375 L 228.117188 369.855469 L 234.074219 348.179688 " fill-opacity="1" fill-rule="evenodd"/><path fill="#f33d00" d="M 311.347656 425.910156 C 311.515625 425.285156 312.085938 424.847656 312.730469 424.847656 C 313.378906 424.847656 313.945312 425.285156 314.117188 425.910156 L 320.078125 447.585938 L 342.414062 446.589844 C 343.058594 446.5625 343.644531 446.96875 343.84375 447.585938 C 344.042969 448.207031 343.808594 448.882812 343.269531 449.238281 L 324.613281 461.640625 L 332.460938 482.703125 C 332.6875 483.3125 332.480469 483.996094 331.957031 484.378906 C 331.433594 484.761719 330.726562 484.746094 330.21875 484.339844 L 312.730469 470.328125 L 295.242188 484.339844 C 294.738281 484.746094 294.027344 484.761719 293.503906 484.378906 C 292.984375 483.996094 292.777344 483.3125 293 482.703125 L 300.847656 461.640625 L 282.195312 449.238281 C 281.65625 448.882812 281.421875 448.207031 281.621094 447.585938 C 281.820312 446.96875 282.40625 446.5625 283.050781 446.589844 L 305.386719 447.585938 L 311.347656 425.910156 " fill-opacity="1" fill-rule="evenodd"/><g clip-path="url(#8bd3421b37)"><path fill="#f33d00" d="M 416.898438 460.648438 C 417.070312 460.019531 417.640625 459.585938 418.285156 459.585938 C 418.933594 459.585938 419.5 460.019531 419.667969 460.648438 L 425.628906 482.324219 L 447.964844 481.328125 C 448.613281 481.300781 449.199219 481.707031 449.398438 482.324219 C 449.59375 482.941406 449.359375 483.617188 448.824219 483.976562 L 430.167969 496.378906 L 438.015625 517.441406 C 438.242188 518.046875 438.035156 518.734375 437.511719 519.117188 C 436.988281 519.496094 436.277344 519.480469 435.773438 519.078125 L 418.285156 505.0625 L 400.796875 519.078125 C 400.292969 519.480469 399.582031 519.496094 399.058594 519.117188 C 398.535156 518.734375 398.328125 518.046875 398.558594 517.441406 L 406.402344 496.378906 L 387.75 483.976562 C 387.210938 483.617188 386.976562 482.941406 387.171875 482.324219 C 387.375 481.707031 387.960938 481.300781 388.605469 481.328125 L 410.941406 482.324219 L 416.898438 460.648438 " fill-opacity="1" fill-rule="evenodd"/></g><path fill="#f33d00" d="M 525.578125 431.355469 C 525.75 430.726562 526.316406 430.292969 526.960938 430.292969 C 527.609375 430.292969 528.175781 430.726562 528.347656 431.355469 L 534.304688 453.03125 L 556.640625 452.03125 C 557.289062 452.003906 557.875 452.414062 558.070312 453.03125 C 558.273438 453.648438 558.039062 454.324219 557.5 454.683594 L 538.847656 467.082031 L 546.691406 488.144531 C 546.917969 488.753906 546.714844 489.4375 546.191406 489.824219 C 545.667969 490.203125 544.953125 490.1875 544.449219 489.785156 L 526.960938 475.769531 L 509.472656 489.785156 C 508.96875 490.1875 508.257812 490.203125 507.734375 489.824219 C 507.210938 489.4375 507.007812 488.753906 507.234375 488.144531 L 515.082031 467.082031 L 496.425781 454.683594 C 495.886719 454.324219 495.652344 453.648438 495.851562 453.03125 C 496.050781 452.414062 496.636719 452.003906 497.28125 452.03125 L 519.621094 453.03125 L 525.578125 431.355469 " fill-opacity="1" fill-rule="evenodd"/><path fill="#f33d00" d="M 605.136719 351.320312 C 605.308594 350.695312 605.871094 350.261719 606.523438 350.261719 C 607.164062 350.261719 607.734375 350.695312 607.90625 351.320312 L 613.863281 372.996094 L 636.203125 372 C 636.847656 371.972656 637.429688 372.382812 637.632812 372.996094 C 637.832031 373.617188 637.59375 374.292969 637.054688 374.652344 L 618.402344 387.050781 L 626.246094 408.113281 C 626.476562 408.722656 626.269531 409.410156 625.746094 409.789062 C 625.226562 410.171875 624.515625 410.15625 624.007812 409.75 L 606.523438 395.734375 L 589.035156 409.75 C 588.527344 410.15625 587.816406 410.171875 587.292969 409.789062 C 586.769531 409.410156 586.566406 408.722656 586.792969 408.113281 L 594.636719 387.050781 L 575.980469 374.652344 C 575.445312 374.292969 575.210938 373.617188 575.410156 372.996094 C 575.609375 372.382812 576.195312 371.972656 576.839844 372 L 599.175781 372.996094 L 605.136719 351.320312 " fill-opacity="1" fill-rule="evenodd"/><g clip-path="url(#b1f8394621)"><path fill="#f33d00" d="M 634.257812 241.996094 C 634.425781 241.367188 634.992188 240.933594 635.640625 240.933594 C 636.285156 240.933594 636.851562 241.367188 637.027344 241.996094 L 642.984375 263.671875 L 665.320312 262.675781 C 665.964844 262.648438 666.550781 263.054688 666.75 263.671875 C 666.953125 264.289062 666.714844 264.964844 666.175781 265.324219 L 647.523438 277.722656 L 655.367188 298.789062 C 655.597656 299.394531 655.390625 300.082031 654.867188 300.464844 C 654.34375 300.847656 653.632812 300.832031 653.128906 300.425781 L 635.640625 286.410156 L 618.152344 300.425781 C 617.648438 300.832031 616.933594 300.847656 616.414062 300.464844 C 615.890625 300.082031 615.683594 299.394531 615.910156 298.789062 L 623.757812 277.722656 L 605.101562 265.324219 C 604.566406 264.964844 604.332031 264.289062 604.53125 263.671875 C 604.726562 263.054688 605.3125 262.648438 605.960938 262.675781 L 628.296875 263.671875 L 634.257812 241.996094 " fill-opacity="1" fill-rule="evenodd"/></g><path fill="#f33d00" d="M 605.136719 132.667969 C 605.308594 132.042969 605.871094 131.609375 606.523438 131.609375 C 607.164062 131.609375 607.734375 132.042969 607.90625 132.667969 L 613.863281 154.347656 L 636.203125 153.351562 C 636.847656 153.320312 637.429688 153.726562 637.632812 154.347656 C 637.832031 154.964844 637.59375 155.640625 637.054688 156 L 618.402344 168.398438 L 626.246094 189.460938 C 626.476562 190.070312 626.269531 190.757812 625.746094 191.136719 C 625.226562 191.519531 624.515625 191.503906 624.007812 191.097656 L 606.523438 177.082031 L 589.035156 191.097656 C 588.527344 191.503906 587.816406 191.519531 587.292969 191.136719 C 586.769531 190.757812 586.566406 190.070312 586.792969 189.460938 L 594.636719 168.398438 L 575.980469 156 C 575.445312 155.640625 575.210938 154.964844 575.410156 154.347656 C 575.609375 153.726562 576.195312 153.320312 576.839844 153.351562 L 599.175781 154.347656 L 605.136719 132.667969 " fill-opacity="1" fill-rule="evenodd"/><path fill="#f33d00" d="M 525.578125 52.636719 C 525.75 52.007812 526.316406 51.574219 526.960938 51.574219 C 527.609375 51.574219 528.175781 52.007812 528.347656 52.636719 L 534.304688 74.3125 L 556.640625 73.316406 C 557.289062 73.289062 557.875 73.695312 558.070312 74.3125 C 558.273438 74.933594 558.039062 75.605469 557.5 75.964844 L 538.847656 88.367188 L 546.691406 109.429688 C 546.917969 110.039062 546.714844 110.722656 546.191406 111.105469 C 545.667969 111.488281 544.953125 111.472656 544.449219 111.066406 L 526.960938 97.054688 L 509.472656 111.066406 C 508.96875 111.472656 508.257812 111.488281 507.734375 111.105469 C 507.210938 110.722656 507.007812 110.039062 507.234375 109.429688 L 515.082031 88.367188 L 496.425781 75.964844 C 495.886719 75.605469 495.652344 74.933594 495.851562 74.3125 C 496.050781 73.695312 496.636719 73.289062 497.28125 73.316406 L 519.621094 74.3125 L 525.578125 52.636719 " fill-opacity="1" fill-rule="evenodd"/><path fill="#f6ece3" d="M 304.023438 386.683594 C 311.335938 404.558594 328.449219 413 339.390625 418.394531 C 382.511719 439.660156 448.050781 437.101562 495.265625 398.195312 C 506.316406 389.089844 560.777344 341.394531 548.167969 276.890625 C 537.027344 219.871094 480.71875 186.835938 433.28125 182.480469 C 393.976562 178.875 342.632812 193.316406 324.457031 228.128906 C 313.027344 250.015625 326.726562 256.953125 317.351562 306.535156 C 309.234375 349.449219 295.082031 364.824219 304.023438 386.683594 " fill-opacity="1" fill-rule="nonzero"/><path fill="#f33d00" d="M 458.144531 337.652344 L 407.4375 337.972656 C 407.109375 337.972656 407 338.277344 407 338.570312 L 407 381.710938 C 407 385.84375 378.191406 396.574219 377.910156 396.027344 L 377.875 400.59375 C 377.871094 401.445312 378.621094 402.199219 379.574219 402.199219 L 380.207031 402.199219 C 380.210938 402.199219 380.214844 402.199219 380.21875 402.199219 L 422.734375 402.199219 C 424.707031 402.199219 426.652344 401.757812 428.441406 401.007812 L 451.816406 391.164062 C 456.023438 389.394531 458.675781 385.585938 458.675781 381.4375 L 458.675781 338.253906 C 458.675781 337.957031 458.472656 337.652344 458.144531 337.652344 " fill-opacity="1" fill-rule="nonzero"/><path fill="#ffab99" d="M 401.863281 335.457031 L 401.863281 378.609375 C 401.863281 382.863281 399.128906 386.738281 394.828125 388.574219 L 379.058594 395.304688 C 378.027344 395.746094 378.378906 397.125 379.519531 397.125 L 422.847656 397.125 C 424.792969 397.125 426.71875 396.738281 428.480469 396 L 445.949219 388.644531 C 450.285156 386.816406 453.046875 382.925781 453.046875 378.652344 L 453.046875 335.457031 C 453.046875 335.28125 452.886719 335.140625 452.691406 335.140625 L 402.222656 335.140625 C 402.027344 335.140625 401.863281 335.28125 401.863281 335.457031 " fill-opacity="1" fill-rule="nonzero"/><path fill="#f33d00" d="M 307.078125 360.1875 L 525.636719 360.679688 C 527.550781 360.679688 529.457031 359.242188 529.699219 357.339844 L 547.457031 220.582031 C 547.882812 217.269531 545.316406 213.972656 542.019531 214.054688 L 325.996094 215.195312 L 307.078125 360.1875 " fill-opacity="1" fill-rule="nonzero"/><path fill="#ffab99" d="M 533.4375 214.832031 C 537.195312 214.832031 540.59375 218.644531 540.113281 222.382812 L 522.867188 357.003906 C 522.625 358.90625 520.589844 360.515625 518.679688 360.515625 L 303.988281 360.167969 C 301.695312 360.167969 300.164062 358.265625 300.457031 355.984375 L 318.3125 218.863281 C 318.558594 216.960938 319.816406 214.832031 321.726562 214.832031 L 533.4375 214.832031 " fill-opacity="1" fill-rule="nonzero"/><path fill="#211d1d" d="M 518.675781 360.667969 L 360.167969 360.410156 C 359.921875 360.410156 359.71875 360.207031 359.71875 359.960938 C 359.71875 359.710938 359.921875 359.507812 360.167969 359.507812 C 360.171875 359.507812 360.171875 359.507812 360.171875 359.507812 L 518.679688 359.765625 C 520.425781 359.765625 522.210938 358.28125 522.421875 356.652344 L 530.769531 291.460938 C 530.804688 291.210938 531.027344 291.035156 531.277344 291.070312 C 531.523438 291.101562 531.699219 291.328125 531.667969 291.574219 L 523.316406 356.765625 C 523.046875 358.84375 520.878906 360.667969 518.675781 360.667969 " fill-opacity="1" fill-rule="nonzero"/><path fill="#211d1d" d="M 303.992188 360.320312 C 302.792969 360.320312 301.722656 359.851562 300.972656 359 C 300.199219 358.121094 299.847656 356.890625 300.007812 355.628906 L 317.863281 218.507812 C 318.140625 216.359375 319.589844 214.082031 321.726562 214.082031 L 533.4375 214.082031 C 535.371094 214.082031 537.296875 215.007812 538.722656 216.628906 C 540.132812 218.234375 540.804688 220.242188 540.558594 222.140625 L 534.304688 270.976562 C 534.273438 271.226562 534.042969 271.398438 533.796875 271.367188 C 533.550781 271.335938 533.375 271.109375 533.410156 270.863281 L 539.664062 222.027344 C 539.875 220.382812 539.285156 218.636719 538.042969 217.226562 C 536.789062 215.800781 535.113281 214.984375 533.4375 214.984375 L 321.726562 214.984375 C 320.164062 214.984375 318.992188 216.835938 318.761719 218.625 L 300.90625 355.742188 C 300.773438 356.761719 301.039062 357.707031 301.652344 358.40625 C 302.226562 359.058594 303.054688 359.417969 303.988281 359.417969 L 353.390625 359.121094 C 353.390625 359.121094 353.390625 359.121094 353.394531 359.121094 C 353.640625 359.121094 353.84375 359.324219 353.84375 359.570312 C 353.847656 359.820312 353.644531 360.023438 353.394531 360.027344 L 303.992188 360.320312 " fill-opacity="1" fill-rule="nonzero"/><path fill="#f6ece3" d="M 527.207031 220.363281 C 530.664062 220.363281 533.789062 223.871094 533.347656 227.308594 L 517.484375 351.160156 C 517.257812 352.910156 515.386719 354.386719 513.628906 354.386719 L 310.785156 354.066406 C 308.675781 354.066406 307.265625 352.316406 307.535156 350.21875 L 323.964844 224.070312 C 324.1875 222.320312 325.34375 220.363281 327.101562 220.363281 L 527.207031 220.363281 " fill-opacity="1" fill-rule="nonzero"/><path fill="#ffffff" d="M 327.101562 220.8125 C 325.683594 220.8125 324.621094 222.5 324.410156 224.128906 L 307.984375 350.277344 C 307.863281 351.203125 308.105469 352.0625 308.664062 352.695312 C 309.183594 353.289062 309.9375 353.617188 310.785156 353.617188 L 513.628906 353.9375 C 515.222656 353.9375 516.84375 352.585938 517.035156 351.101562 L 532.898438 227.25 C 533.09375 225.753906 532.554688 224.152344 531.417969 222.863281 C 530.273438 221.558594 528.738281 220.8125 527.207031 220.8125 Z M 513.628906 354.839844 L 310.785156 354.519531 C 309.675781 354.519531 308.679688 354.082031 307.984375 353.292969 C 307.265625 352.472656 306.9375 351.332031 307.089844 350.160156 L 323.515625 224.011719 C 323.769531 222.023438 325.117188 219.910156 327.101562 219.910156 L 527.207031 219.910156 C 528.996094 219.910156 530.78125 220.769531 532.097656 222.265625 C 533.402344 223.75 534.019531 225.609375 533.796875 227.367188 L 517.933594 351.21875 C 517.683594 353.148438 515.671875 354.839844 513.628906 354.839844 " fill-opacity="1" fill-rule="nonzero"/><path fill="#ffffff" d="M 434.382812 256.664062 L 393.019531 256.664062 C 391.859375 256.664062 391.015625 255.664062 391.199219 254.503906 L 393.117188 242.613281 C 393.277344 241.589844 394.1875 240.804688 395.210938 240.804688 L 436.574219 240.804688 C 437.734375 240.804688 438.574219 241.804688 438.394531 242.96875 L 436.476562 254.855469 C 436.316406 255.878906 435.40625 256.664062 434.382812 256.664062 " fill-opacity="1" fill-rule="nonzero"/><path fill="#ffffff" d="M 398.511719 256.160156 L 398.261719 263.5625 L 405.929688 255.367188 Z M 398.511719 256.160156 " fill-opacity="1" fill-rule="nonzero"/><path fill="#ffab99" d="M 454.125 229.0625 L 412.761719 229.0625 C 411.738281 229.0625 410.832031 229.832031 410.667969 230.855469 L 408.75 242.753906 C 408.570312 243.914062 409.410156 244.925781 410.570312 244.925781 L 443.015625 244.925781 L 447.230469 251.4375 L 448.515625 244.925781 L 451.933594 244.925781 C 452.957031 244.925781 453.867188 244.121094 454.03125 243.097656 L 455.945312 231.21875 C 456.128906 230.054688 455.285156 229.0625 454.125 229.0625 " fill-opacity="1" fill-rule="nonzero"/><path fill="#f6ece3" d="M 405.035156 246.148438 L 396.085938 246.148438 C 395.847656 246.148438 395.671875 246.003906 395.703125 245.835938 L 396.046875 244.125 C 396.074219 243.976562 396.261719 243.863281 396.472656 243.863281 L 405.414062 243.863281 C 405.652344 243.863281 405.832031 244.007812 405.796875 244.175781 L 405.457031 245.890625 C 405.425781 246.035156 405.242188 246.148438 405.035156 246.148438 " fill-opacity="1" fill-rule="nonzero"/><path fill="#f6ece3" d="M 416.421875 249.425781 L 395.433594 249.425781 C 395.195312 249.425781 395.015625 249.28125 395.050781 249.113281 L 395.390625 247.398438 C 395.421875 247.253906 395.605469 247.140625 395.816406 247.140625 L 416.804688 247.140625 C 417.042969 247.140625 417.222656 247.28125 417.1875 247.449219 L 416.84375 249.164062 C 416.816406 249.3125 416.632812 249.425781 416.421875 249.425781 " fill-opacity="1" fill-rule="nonzero"/><path fill="#f6ece3" d="M 429.800781 252.699219 L 394.777344 252.699219 C 394.539062 252.699219 394.363281 252.554688 394.394531 252.386719 L 394.738281 250.671875 C 394.769531 250.523438 394.953125 250.414062 395.160156 250.414062 L 430.179688 250.414062 C 430.417969 250.414062 430.597656 250.554688 430.5625 250.722656 L 430.21875 252.4375 C 430.191406 252.585938 430.007812 252.699219 429.800781 252.699219 " fill-opacity="1" fill-rule="nonzero"/><path fill="#ffffff" d="M 424.164062 234.375 L 415.21875 234.375 C 414.980469 234.375 414.804688 234.230469 414.835938 234.0625 L 415.179688 232.347656 C 415.210938 232.199219 415.390625 232.085938 415.601562 232.085938 L 424.546875 232.085938 C 424.785156 232.085938 424.964844 232.230469 424.929688 232.398438 L 424.585938 234.113281 C 424.558594 234.261719 424.375 234.375 424.164062 234.375 " fill-opacity="1" fill-rule="nonzero"/><path fill="#ffffff" d="M 435.554688 237.648438 L 414.566406 237.648438 C 414.328125 237.648438 414.148438 237.503906 414.183594 237.335938 L 414.527344 235.621094 C 414.554688 235.476562 414.738281 235.363281 414.949219 235.363281 L 435.9375 235.363281 C 436.175781 235.363281 436.351562 235.507812 436.320312 235.675781 L 435.976562 237.386719 C 435.949219 237.535156 435.765625 237.648438 435.554688 237.648438 " fill-opacity="1" fill-rule="nonzero"/><path fill="#ffffff" d="M 448.929688 240.925781 L 413.910156 240.925781 C 413.671875 240.925781 413.496094 240.78125 413.527344 240.613281 L 413.871094 238.898438 C 413.898438 238.75 414.082031 238.636719 414.292969 238.636719 L 449.3125 238.636719 C 449.550781 238.636719 449.726562 238.78125 449.695312 238.949219 L 449.351562 240.664062 C 449.324219 240.8125 449.140625 240.925781 448.929688 240.925781 " fill-opacity="1" fill-rule="nonzero"/><path fill="#f33d00" d="M 361.199219 233.914062 L 361.636719 230.628906 C 361.871094 228.851562 360.570312 227.347656 358.796875 227.347656 L 336.980469 227.347656 C 335.359375 227.347656 333.929688 228.613281 333.714844 230.238281 L 327.835938 276.671875 C 327.601562 278.449219 328.902344 279.953125 330.675781 279.953125 L 379.769531 280.992188 C 381.386719 280.992188 382.816406 279.726562 383.035156 278.101562 L 388.101562 237.199219 C 388.335938 235.417969 387.035156 233.914062 385.261719 233.914062 L 361.199219 233.914062 " fill-opacity="1" fill-rule="nonzero"/><path fill="#f6ece3" d="M 376.132812 278.011719 L 381.113281 244.414062 L 376.683594 239.1875 L 341.234375 239.1875 C 339.429688 239.1875 337.835938 240.589844 337.585938 242.398438 L 332.628906 278.011719 L 376.132812 278.011719 " fill-opacity="1" fill-rule="nonzero"/><path fill="#211d1d" d="M 333.148438 277.5625 L 375.742188 277.5625 L 380.636719 244.550781 L 376.472656 239.636719 L 341.234375 239.636719 C 339.660156 239.636719 338.253906 240.878906 338.03125 242.460938 Z M 376.128906 278.464844 L 332.628906 278.464844 C 332.5 278.464844 332.375 278.40625 332.289062 278.308594 C 332.203125 278.210938 332.164062 278.078125 332.183594 277.949219 L 337.136719 242.335938 C 337.417969 240.316406 339.21875 238.738281 341.234375 238.738281 L 376.679688 238.738281 C 376.8125 238.738281 376.941406 238.796875 377.027344 238.894531 L 381.457031 244.125 C 381.542969 244.222656 381.578125 244.351562 381.558594 244.480469 L 376.578125 278.078125 C 376.542969 278.296875 376.355469 278.464844 376.128906 278.464844 " fill-opacity="1" fill-rule="nonzero"/><path fill="#211d1d" d="M 381.113281 244.863281 C 381.109375 244.863281 381.105469 244.863281 381.101562 244.863281 L 375.695312 244.703125 C 375.566406 244.695312 375.445312 244.640625 375.363281 244.539062 C 375.28125 244.4375 375.242188 244.308594 375.265625 244.179688 L 375.996094 239.46875 C 376.035156 239.222656 376.265625 239.054688 376.511719 239.09375 C 376.757812 239.128906 376.925781 239.359375 376.886719 239.609375 L 376.234375 243.816406 L 381.128906 243.960938 C 381.375 243.96875 381.574219 244.175781 381.566406 244.425781 C 381.558594 244.671875 381.359375 244.863281 381.113281 244.863281 " fill-opacity="1" fill-rule="nonzero"/><path fill="#ffab99" d="M 370.890625 251.207031 L 343.265625 251.207031 C 343.015625 251.207031 342.8125 251.007812 342.8125 250.757812 C 342.8125 250.507812 343.015625 250.304688 343.265625 250.304688 L 370.890625 250.304688 C 371.140625 250.304688 371.339844 250.507812 371.339844 250.757812 C 371.339844 251.007812 371.140625 251.207031 370.890625 251.207031 " fill-opacity="1" fill-rule="nonzero"/><path fill="#ffab99" d="M 371.378906 247.863281 L 343.753906 247.863281 C 343.503906 247.863281 343.300781 247.664062 343.300781 247.414062 C 343.300781 247.164062 343.503906 246.960938 343.753906 246.960938 L 371.378906 246.960938 C 371.628906 246.960938 371.828125 247.164062 371.828125 247.414062 C 371.828125 247.664062 371.628906 247.863281 371.378906 247.863281 " fill-opacity="1" fill-rule="nonzero"/><path fill="#ffab99" d="M 372.121094 244.523438 L 359.078125 244.523438 C 358.828125 244.523438 358.625 244.320312 358.625 244.070312 C 358.625 243.824219 358.828125 243.621094 359.078125 243.621094 L 372.121094 243.621094 C 372.371094 243.621094 372.574219 243.824219 372.574219 244.070312 C 372.574219 244.320312 372.371094 244.523438 372.121094 244.523438 " fill-opacity="1" fill-rule="nonzero"/><path fill="#ffab99" d="M 352.167969 244.523438 L 344.496094 244.523438 C 344.246094 244.523438 344.042969 244.320312 344.042969 244.070312 C 344.042969 243.824219 344.246094 243.621094 344.496094 243.621094 L 352.167969 243.621094 C 352.417969 243.621094 352.621094 243.824219 352.621094 244.070312 C 352.621094 244.320312 352.417969 244.523438 352.167969 244.523438 " fill-opacity="1" fill-rule="nonzero"/><path fill="#f33d00" d="M 379.65625 281.132812 L 330.425781 281.132812 C 328.898438 281.132812 327.667969 280.246094 327.53125 279.046875 L 325.097656 257.707031 C 324.929688 256.238281 326.460938 254.917969 328.332031 254.917969 L 377.5625 254.917969 C 379.089844 254.917969 380.320312 255.808594 380.457031 257.003906 L 382.890625 278.347656 C 383.058594 279.816406 381.527344 281.132812 379.65625 281.132812 " fill-opacity="1" fill-rule="nonzero"/><path fill="#211d1d" d="M 379.65625 281.585938 L 344.894531 281.585938 C 344.644531 281.585938 344.445312 281.382812 344.445312 281.132812 C 344.445312 280.886719 344.644531 280.683594 344.894531 280.683594 L 379.65625 280.683594 C 380.570312 280.683594 381.4375 280.324219 381.972656 279.726562 C 382.222656 279.445312 382.507812 278.984375 382.441406 278.398438 L 380.007812 257.054688 C 379.898438 256.097656 378.847656 255.371094 377.5625 255.371094 L 328.332031 255.371094 C 327.417969 255.371094 326.550781 255.730469 326.019531 256.324219 C 325.765625 256.609375 325.480469 257.070312 325.546875 257.65625 L 326.6875 267.664062 C 326.714844 267.910156 326.539062 268.132812 326.289062 268.160156 C 326.042969 268.1875 325.820312 268.011719 325.789062 267.765625 L 324.648438 257.757812 C 324.570312 257.039062 324.816406 256.316406 325.34375 255.726562 C 326.046875 254.9375 327.164062 254.46875 328.332031 254.46875 L 377.5625 254.46875 C 379.335938 254.46875 380.742188 255.511719 380.90625 256.953125 L 383.339844 278.292969 C 383.421875 279.011719 383.171875 279.734375 382.644531 280.328125 C 381.941406 281.113281 380.824219 281.585938 379.65625 281.585938 " fill-opacity="1" fill-rule="nonzero"/><path fill="#ffffff" d="M 433.597656 268.136719 L 391.96875 269.433594 C 390.828125 269.472656 389.828125 270.347656 389.628906 271.488281 L 381.777344 316.914062 C 381.535156 318.296875 382.554688 319.492188 383.941406 319.449219 L 425.570312 318.152344 C 426.710938 318.117188 427.710938 317.238281 427.910156 316.097656 L 435.761719 270.671875 C 436.003906 269.289062 434.984375 268.09375 433.597656 268.136719 " fill-opacity="1" fill-rule="nonzero"/><path fill="#ffab99" d="M 425.460938 307.96875 L 386.882812 309.171875 L 393.054688 273.710938 L 431.632812 272.507812 L 425.460938 307.96875 " fill-opacity="1" fill-rule="nonzero"/><path fill="#ffab99" d="M 425.460938 307.96875 L 386.882812 309.171875 L 393.054688 273.710938 L 431.632812 272.507812 L 425.460938 307.96875 " fill-opacity="1" fill-rule="nonzero"/><path fill="#f6ece3" d="M 422.652344 287.753906 C 421.648438 286.566406 419.8125 286.5 418.566406 287.601562 L 409.539062 295.578125 C 408.75 296.273438 407.585938 296.230469 406.953125 295.480469 L 404.367188 292.421875 C 403.363281 291.234375 401.527344 291.164062 400.28125 292.265625 L 390.152344 301.214844 L 389.109375 307.21875 L 423.890625 306.132812 L 426.332031 292.109375 L 422.652344 287.753906 " fill-opacity="1" fill-rule="nonzero"/><path fill="#f6ece3" d="M 411.285156 281.617188 C 410.871094 283.996094 408.625 285.980469 406.265625 286.054688 C 403.90625 286.128906 402.328125 284.261719 402.742188 281.886719 C 403.15625 279.507812 405.402344 277.523438 407.761719 277.449219 C 410.121094 277.375 411.699219 279.242188 411.285156 281.617188 " fill-opacity="1" fill-rule="nonzero"/><path fill="#ffffff" d="M 419.652344 295.441406 L 378.023438 296.824219 C 376.878906 296.863281 375.882812 297.742188 375.683594 298.882812 L 367.925781 344.320312 C 367.6875 345.703125 368.710938 346.894531 370.097656 346.847656 L 411.726562 345.464844 C 412.871094 345.425781 413.867188 344.546875 414.0625 343.40625 L 421.824219 297.96875 C 422.0625 296.585938 421.039062 295.394531 419.652344 295.441406 " fill-opacity="1" fill-rule="nonzero"/><path fill="#ffab99" d="M 411.597656 335.285156 L 373.015625 336.5625 L 379.113281 301.097656 L 417.695312 299.816406 L 411.597656 335.285156 " fill-opacity="1" fill-rule="nonzero"/><path fill="#ffab99" d="M 411.597656 335.285156 L 373.015625 336.5625 L 379.113281 301.097656 L 417.695312 299.816406 L 411.597656 335.285156 " fill-opacity="1" fill-rule="nonzero"/><path fill="#f6ece3" d="M 408.746094 315.078125 C 407.742188 313.894531 405.90625 313.828125 404.660156 314.933594 L 395.648438 322.925781 C 394.859375 323.625 393.695312 323.585938 393.058594 322.835938 L 390.46875 319.78125 C 389.464844 318.59375 387.628906 318.53125 386.382812 319.636719 L 376.269531 328.601562 L 375.238281 334.609375 L 410.023438 333.453125 L 412.4375 319.425781 L 408.746094 315.078125 " fill-opacity="1" fill-rule="nonzero"/><path fill="#f6ece3" d="M 397.363281 308.96875 C 396.957031 311.34375 394.710938 313.332031 392.355469 313.410156 C 389.996094 313.488281 388.414062 311.625 388.824219 309.25 C 389.230469 306.875 391.472656 304.882812 393.832031 304.804688 C 396.191406 304.726562 397.773438 306.589844 397.363281 308.96875 " fill-opacity="1" fill-rule="nonzero"/><path fill="#ffffff" d="M 357.394531 345.050781 L 317.808594 345.050781 C 316.460938 345.050781 315.484375 343.890625 315.695312 342.542969 L 323.628906 291.605469 C 323.816406 290.40625 324.878906 289.488281 326.078125 289.496094 L 365.253906 289.773438 C 366.574219 289.785156 367.539062 290.90625 367.359375 292.230469 C 366.105469 301.527344 361.144531 334.269531 359.832031 342.933594 C 359.648438 344.128906 358.589844 345.050781 357.394531 345.050781 " fill-opacity="1" fill-rule="nonzero"/><path fill="#ffab99" d="M 354.84375 326.84375 C 354.839844 326.84375 354.835938 326.84375 354.832031 326.84375 L 328.011719 326.503906 C 327.597656 326.5 327.265625 326.160156 327.269531 325.746094 C 327.273438 325.328125 327.617188 325.003906 328.03125 325 L 354.851562 325.339844 C 355.269531 325.34375 355.601562 325.6875 355.59375 326.101562 C 355.589844 326.515625 355.253906 326.84375 354.84375 326.84375 " fill-opacity="1" fill-rule="nonzero"/><path fill="#ffab99" d="M 339.46875 331.191406 C 339.464844 331.191406 339.460938 331.191406 339.457031 331.191406 L 326.578125 331.027344 C 326.164062 331.023438 325.832031 330.683594 325.835938 330.265625 C 325.839844 329.851562 326.1875 329.523438 326.597656 329.523438 L 339.476562 329.6875 C 339.890625 329.691406 340.222656 330.03125 340.21875 330.445312 C 340.214844 330.859375 339.878906 331.191406 339.46875 331.191406 " fill-opacity="1" fill-rule="nonzero"/><path fill="#ffab99" d="M 352.082031 336.191406 C 352.082031 336.191406 352.078125 336.191406 352.074219 336.191406 L 325.253906 335.855469 C 324.835938 335.851562 324.503906 335.507812 324.511719 335.09375 C 324.515625 334.675781 324.847656 334.347656 325.273438 334.351562 L 352.09375 334.6875 C 352.507812 334.695312 352.839844 335.035156 352.835938 335.449219 C 352.832031 335.863281 352.496094 336.191406 352.082031 336.191406 " fill-opacity="1" fill-rule="nonzero"/><path fill="#f6ece3" d="M 332.449219 307.5 C 332.824219 301.863281 337.671875 297.28125 343.273438 297.269531 C 348.878906 297.25 353.117188 301.808594 352.738281 307.445312 C 352.363281 313.078125 347.515625 317.660156 341.914062 317.675781 C 336.3125 317.691406 332.074219 313.136719 332.449219 307.5 " fill-opacity="1" fill-rule="nonzero"/><path fill="#ffab99" d="M 335.140625 314.910156 C 336.84375 316.632812 339.21875 317.683594 341.914062 317.675781 C 344.609375 317.667969 347.128906 316.601562 349.058594 314.875 C 347 314.222656 344.664062 313.863281 342.167969 313.867188 C 339.671875 313.875 337.285156 314.25 335.140625 314.910156 " fill-opacity="1" fill-rule="nonzero"/><path fill="#ffffff" d="M 342.113281 315.59375 C 341.230469 315.597656 340.558594 314.878906 340.621094 313.988281 L 341.167969 305.773438 L 344.371094 305.765625 L 343.820312 313.976562 C 343.761719 314.867188 342.996094 315.59375 342.113281 315.59375 " fill-opacity="1" fill-rule="nonzero"/><path fill="#211d1d" d="M 348.769531 308.75 C 348.738281 306.199219 349.960938 304.605469 347.648438 301.726562 C 345.25 298.75 342.886719 300.757812 342.886719 300.757812 C 342.886719 300.757812 341.132812 299.214844 338.480469 302.464844 C 336.140625 305.332031 338.722656 307.886719 337.679688 309.671875 C 336.632812 311.457031 333.429688 312.4375 333.429688 312.4375 C 333.429688 312.4375 334.300781 314.457031 335.488281 315.347656 L 348.734375 315.308594 C 348.734375 315.308594 351.671875 312.304688 351.726562 311.453125 C 351.726562 311.453125 348.800781 311.300781 348.769531 308.75 " fill-opacity="1" fill-rule="nonzero"/><path fill="#f33d00" d="M 335.140625 314.910156 C 336.84375 316.632812 339.21875 317.683594 341.914062 317.675781 C 344.609375 317.667969 347.128906 316.601562 349.058594 314.875 C 347 314.222656 344.664062 313.863281 342.167969 313.867188 C 339.671875 313.875 337.285156 314.25 335.140625 314.910156 " fill-opacity="1" fill-rule="nonzero"/><path fill="#ffffff" d="M 343.101562 303.097656 L 342.992188 303.097656 L 339.511719 306.402344 L 339.390625 308.207031 C 339.3125 309.414062 339.890625 310.464844 340.816406 311.03125 L 340.621094 313.988281 C 340.558594 314.878906 341.230469 315.597656 342.113281 315.59375 C 342.996094 315.59375 343.761719 314.867188 343.820312 313.976562 L 344.015625 311.078125 C 345.070312 310.523438 345.832031 309.433594 345.914062 308.191406 L 346.042969 306.257812 C 346.160156 304.507812 344.84375 303.09375 343.101562 303.097656 " fill-opacity="1" fill-rule="nonzero"/><path fill="#211d1d" d="M 342.109375 316.046875 C 341.558594 316.046875 341.054688 315.828125 340.6875 315.4375 C 340.316406 315.042969 340.132812 314.515625 340.167969 313.957031 L 340.359375 311.09375 C 340.375 310.84375 340.59375 310.660156 340.839844 310.671875 C 341.089844 310.691406 341.277344 310.902344 341.261719 311.152344 L 341.070312 314.019531 C 341.050781 314.324219 341.148438 314.609375 341.347656 314.820312 C 341.539062 315.027344 341.8125 315.140625 342.109375 315.140625 C 342.109375 315.140625 342.109375 315.140625 342.113281 315.140625 C 342.761719 315.140625 343.328125 314.605469 343.371094 313.949219 L 343.558594 311.132812 C 343.578125 310.886719 343.792969 310.699219 344.039062 310.714844 C 344.289062 310.730469 344.476562 310.945312 344.460938 311.195312 L 344.273438 314.007812 C 344.199219 315.128906 343.230469 316.042969 342.113281 316.046875 C 342.113281 316.046875 342.109375 316.046875 342.109375 316.046875 " fill-opacity="1" fill-rule="nonzero"/><path fill="#211d1d" d="M 342.433594 311.929688 C 342.1875 311.929688 341.984375 311.730469 341.984375 311.480469 C 341.980469 311.230469 342.183594 311.027344 342.433594 311.027344 C 344 311.023438 345.359375 309.738281 345.464844 308.160156 L 345.59375 306.230469 C 345.640625 305.523438 345.417969 304.859375 344.96875 304.359375 C 344.535156 303.878906 343.9375 303.59375 343.273438 303.554688 L 339.949219 306.667969 L 339.84375 308.238281 C 339.769531 309.335938 340.339844 310.332031 341.296875 310.78125 C 341.523438 310.886719 341.617188 311.15625 341.511719 311.382812 C 341.40625 311.609375 341.136719 311.703125 340.914062 311.597656 C 339.617188 310.988281 338.84375 309.648438 338.941406 308.179688 L 339.058594 306.429688 C 339.066406 306.3125 339.117188 306.207031 339.199219 306.128906 L 342.792969 302.769531 C 342.878906 302.691406 342.984375 302.648438 343.097656 302.648438 C 343.15625 302.648438 343.207031 302.648438 343.257812 302.648438 C 344.1875 302.6875 345.03125 303.082031 345.640625 303.757812 C 346.253906 304.441406 346.554688 305.339844 346.492188 306.289062 L 346.363281 308.222656 C 346.230469 310.261719 344.464844 311.925781 342.4375 311.929688 C 342.433594 311.929688 342.433594 311.929688 342.433594 311.929688 " fill-opacity="1" fill-rule="nonzero"/><path fill="#211d1d" d="M 341.886719 318.125 C 339.074219 318.125 336.503906 317.03125 334.636719 315.046875 C 332.746094 313.027344 331.808594 310.335938 332 307.46875 C 332.082031 306.214844 332.378906 304.988281 332.882812 303.820312 C 332.980469 303.589844 333.246094 303.484375 333.472656 303.582031 C 333.703125 303.679688 333.808594 303.945312 333.710938 304.175781 C 333.25 305.25 332.976562 306.378906 332.898438 307.53125 C 332.726562 310.144531 333.578125 312.59375 335.296875 314.425781 C 336.988281 316.230469 339.328125 317.226562 341.886719 317.226562 C 341.894531 317.226562 341.902344 317.226562 341.914062 317.226562 C 347.273438 317.210938 351.929688 312.808594 352.289062 307.414062 C 352.464844 304.796875 351.613281 302.347656 349.894531 300.515625 C 348.199219 298.710938 345.859375 297.71875 343.304688 297.71875 C 343.292969 297.71875 343.285156 297.71875 343.277344 297.71875 C 340.359375 297.726562 337.535156 299.035156 335.527344 301.3125 C 335.363281 301.5 335.074219 301.519531 334.890625 301.355469 C 334.703125 301.1875 334.683594 300.902344 334.851562 300.714844 C 337.03125 298.246094 340.101562 296.824219 343.273438 296.816406 C 343.285156 296.816406 343.292969 296.816406 343.304688 296.816406 C 346.113281 296.816406 348.6875 297.910156 350.550781 299.898438 C 352.445312 301.914062 353.382812 304.605469 353.191406 307.472656 C 352.800781 313.332031 347.742188 318.109375 341.914062 318.125 C 341.90625 318.125 341.894531 318.125 341.886719 318.125 " fill-opacity="1" fill-rule="nonzero"/><path fill="#ffab99" d="M 515.335938 256.980469 L 460.816406 256.980469 C 458.859375 256.980469 457.5 255.371094 457.78125 253.390625 L 460.953125 231.210938 C 461.234375 229.226562 463.054688 227.621094 465.011719 227.621094 L 519.53125 227.621094 C 521.488281 227.621094 522.851562 229.226562 522.566406 231.210938 L 519.398438 253.390625 C 519.113281 255.371094 517.296875 256.980469 515.335938 256.980469 " fill-opacity="1" fill-rule="nonzero"/><path fill="#ffffff" d="M 501.800781 232.734375 L 477.125 232.734375 C 476.710938 232.734375 476.375 232.398438 476.375 231.980469 C 476.375 231.566406 476.710938 231.226562 477.125 231.226562 L 501.800781 231.226562 C 502.21875 231.226562 502.554688 231.566406 502.554688 231.980469 C 502.554688 232.398438 502.21875 232.734375 501.800781 232.734375 " fill-opacity="1" fill-rule="nonzero"/><path fill="#ffffff" d="M 464.789062 237.546875 C 464.375 237.546875 464.039062 237.214844 464.035156 236.804688 C 464.03125 236.386719 464.367188 236.046875 464.78125 236.042969 L 515.488281 235.59375 C 515.488281 235.59375 515.492188 235.59375 515.496094 235.59375 C 515.90625 235.59375 516.246094 235.925781 516.246094 236.335938 C 516.25 236.753906 515.917969 237.09375 515.503906 237.097656 L 464.796875 237.546875 C 464.792969 237.546875 464.789062 237.546875 464.789062 237.546875 " fill-opacity="1" fill-rule="nonzero"/><path fill="#ffffff" d="M 462.683594 247.179688 C 462.265625 247.179688 461.929688 246.84375 461.929688 246.429688 C 461.929688 246.011719 462.265625 245.675781 462.679688 245.675781 L 513.683594 245.523438 C 514.097656 245.527344 514.4375 245.855469 514.441406 246.273438 C 514.441406 246.691406 514.105469 247.027344 513.691406 247.027344 L 462.683594 247.179688 " fill-opacity="1" fill-rule="nonzero"/><path fill="#ffffff" d="M 463.585938 242.363281 C 463.171875 242.363281 462.835938 242.03125 462.832031 241.617188 C 462.828125 241.203125 463.164062 240.863281 463.578125 240.859375 L 498.03125 240.558594 C 498.035156 240.558594 498.039062 240.558594 498.039062 240.558594 C 498.453125 240.558594 498.789062 240.890625 498.792969 241.304688 C 498.796875 241.71875 498.460938 242.058594 498.046875 242.0625 L 463.589844 242.363281 C 463.589844 242.363281 463.585938 242.363281 463.585938 242.363281 " fill-opacity="1" fill-rule="nonzero"/><path fill="#ffffff" d="M 461.777344 252.59375 C 461.367188 252.59375 461.027344 252.261719 461.023438 251.847656 C 461.023438 251.433594 461.359375 251.09375 461.773438 251.089844 L 509.019531 250.789062 C 509.023438 250.789062 509.023438 250.789062 509.023438 250.789062 C 509.4375 250.789062 509.773438 251.125 509.777344 251.535156 C 509.78125 251.953125 509.445312 252.292969 509.027344 252.292969 L 461.785156 252.59375 C 461.785156 252.59375 461.78125 252.59375 461.777344 252.59375 " fill-opacity="1" fill-rule="nonzero"/><path fill="#f33d00" d="M 411.925781 294.800781 L 430.792969 285.539062 C 446.144531 278.003906 460.472656 268.535156 473.421875 257.363281 L 474.347656 251.628906 C 474.347656 251.628906 480.746094 251.699219 482.113281 251.621094 C 483.859375 251.519531 485.636719 252.136719 486.976562 253.445312 C 501.035156 267.199219 517.035156 278.8125 534.472656 287.910156 L 546.808594 294.347656 C 549.675781 295.84375 550.730469 298.480469 549.867188 302.269531 L 533.746094 370.375 C 526.730469 389.429688 498.464844 414.921875 482.558594 428.195312 C 479.660156 430.609375 476.128906 431.789062 472.609375 431.765625 C 471.046875 431.757812 464.578125 431.964844 464.578125 431.964844 C 464.578125 431.964844 463.210938 429.238281 461.402344 427.398438 C 447.105469 412.871094 422.019531 384.910156 416.933594 362.890625 L 408.496094 302.015625 C 407.824219 299.105469 409.242188 296.117188 411.925781 294.800781 " fill-opacity="1" fill-rule="nonzero"/><path fill="#ffffff" d="M 404.78125 295.164062 L 423.5 285.976562 C 438.734375 278.5 452.949219 269.105469 465.796875 258.019531 L 470.621094 253.859375 C 473.128906 251.695312 476.882812 251.816406 479.25 254.132812 C 493.195312 267.78125 509.074219 279.300781 526.375 288.332031 L 538.613281 294.714844 C 541.457031 296.199219 542.757812 299.566406 541.648438 302.574219 L 525.652344 370.152344 C 518.691406 389.058594 490.347656 414.59375 474.558594 427.761719 C 468.449219 432.859375 459.453125 432.402344 453.867188 426.730469 C 439.683594 412.320312 414.796875 384.574219 409.75 362.726562 L 401.375 302.328125 C 400.707031 299.4375 402.117188 296.472656 404.78125 295.164062 " fill-opacity="1" fill-rule="nonzero"/><path fill="#211d1d" d="M 404.78125 295.167969 Z M 410.195312 362.644531 C 415.214844 384.335938 439.914062 411.90625 454.191406 426.417969 C 459.570312 431.882812 468.390625 432.320312 474.269531 427.414062 C 490.335938 414.011719 518.308594 388.742188 525.222656 370.019531 L 541.210938 302.472656 C 541.214844 302.453125 541.21875 302.4375 541.226562 302.421875 C 542.253906 299.632812 541.039062 296.492188 538.40625 295.117188 L 526.164062 288.730469 C 508.8125 279.675781 492.921875 268.144531 478.933594 254.453125 C 476.714844 252.28125 473.265625 252.175781 470.917969 254.203125 L 466.089844 258.363281 C 453.222656 269.464844 438.957031 278.894531 423.699219 286.382812 L 404.980469 295.570312 C 402.492188 296.792969 401.191406 299.527344 401.816406 302.226562 C 401.816406 302.238281 401.820312 302.25 401.820312 302.265625 Z M 464.785156 431.757812 C 464.523438 431.757812 464.257812 431.75 463.992188 431.738281 C 460.039062 431.539062 456.328125 429.875 453.546875 427.046875 C 439.199219 412.46875 414.371094 384.738281 409.308594 362.828125 C 409.304688 362.816406 409.304688 362.804688 409.300781 362.789062 L 400.929688 302.410156 C 400.222656 299.304688 401.722656 296.164062 404.582031 294.761719 L 423.300781 285.574219 C 438.492188 278.117188 452.691406 268.730469 465.503906 257.679688 L 470.328125 253.519531 C 473.035156 251.183594 477.007812 251.308594 479.566406 253.808594 C 493.488281 267.4375 509.308594 278.914062 526.582031 287.929688 L 538.824219 294.316406 C 541.851562 295.894531 543.25 299.5 542.082031 302.707031 L 526.09375 370.257812 C 526.085938 370.273438 526.082031 370.289062 526.074219 370.308594 C 519.105469 389.230469 490.988281 414.644531 474.851562 428.105469 C 472.011719 430.476562 468.464844 431.757812 464.785156 431.757812 " fill-opacity="1" fill-rule="nonzero"/><path fill="#f6ece3" d="M 416.28125 303.1875 L 431.78125 295.582031 C 444.394531 289.390625 456.164062 281.613281 466.800781 272.4375 L 470.796875 268.992188 C 472.871094 267.199219 475.976562 267.296875 477.9375 269.214844 C 489.484375 280.515625 502.632812 290.054688 516.957031 297.53125 L 527.089844 302.816406 C 529.445312 304.046875 530.523438 306.832031 529.605469 309.324219 L 516.359375 365.277344 C 510.59375 380.925781 487.125 402.070312 474.058594 412.972656 C 468.996094 417.195312 461.546875 416.820312 456.925781 412.121094 C 445.179688 400.1875 424.574219 377.21875 420.394531 359.128906 L 413.460938 309.117188 C 412.910156 306.726562 414.078125 304.269531 416.28125 303.1875 " fill-opacity="1" fill-rule="nonzero"/><path fill="#ffffff" d="M 482.335938 319.507812 L 482.050781 301.585938 C 481.921875 295.796875 477.328125 291.054688 471.546875 290.789062 C 465.167969 290.492188 459.875 295.710938 460.023438 302.09375 C 460.023438 302.09375 460.738281 325.597656 457.796875 321.855469 C 457.796875 321.855469 453.011719 322.304688 452.984375 320.519531 L 453.351562 302.5 C 453.109375 292.246094 461.320312 283.828125 471.902344 284.261719 L 471.902344 284.269531 C 480.644531 284.625 488.644531 292.316406 488.863281 301.679688 L 489.089844 319.78125 L 482.335938 319.507812 " fill-opacity="1" fill-rule="nonzero"/><path fill="#211d1d" d="M 457.796875 321.402344 C 457.933594 321.402344 458.0625 321.46875 458.152344 321.574219 C 458.269531 321.726562 458.347656 321.78125 458.382812 321.800781 C 458.554688 321.667969 459.410156 320.585938 459.605469 311.761719 C 459.714844 306.925781 459.574219 302.15625 459.570312 302.105469 C 459.5 298.921875 460.761719 295.820312 463.042969 293.59375 C 465.34375 291.347656 468.367188 290.1875 471.566406 290.335938 C 477.5625 290.613281 482.367188 295.546875 482.503906 301.574219 L 482.785156 319.074219 L 488.632812 319.308594 L 488.410156 301.6875 C 488.203125 292.847656 480.636719 285.074219 471.886719 284.71875 C 471.855469 284.71875 471.824219 284.714844 471.792969 284.707031 C 466.917969 284.53125 462.367188 286.269531 458.96875 289.613281 C 455.523438 293 453.6875 297.570312 453.804688 302.488281 L 453.4375 320.527344 C 453.4375 320.648438 453.492188 320.757812 453.609375 320.867188 C 454.292969 321.476562 456.511719 321.523438 457.753906 321.40625 C 457.769531 321.402344 457.78125 321.402344 457.796875 321.402344 Z M 458.386719 322.710938 C 458.164062 322.710938 457.894531 322.617188 457.605469 322.324219 C 456.753906 322.382812 454.066406 322.488281 453.007812 321.539062 C 452.703125 321.265625 452.539062 320.914062 452.53125 320.527344 L 452.902344 302.488281 C 452.78125 297.339844 454.710938 292.53125 458.335938 288.964844 C 461.933594 285.429688 466.757812 283.597656 471.921875 283.808594 C 471.953125 283.808594 471.984375 283.8125 472.011719 283.820312 C 481.183594 284.246094 489.097656 292.398438 489.316406 301.671875 L 489.539062 319.773438 C 489.542969 319.898438 489.492188 320.019531 489.402344 320.105469 C 489.316406 320.191406 489.191406 320.238281 489.070312 320.234375 L 482.320312 319.957031 C 482.082031 319.949219 481.890625 319.753906 481.886719 319.511719 L 481.601562 301.589844 C 481.476562 296.039062 477.050781 291.492188 471.523438 291.238281 C 468.578125 291.105469 465.792969 292.167969 463.671875 294.238281 C 461.570312 296.292969 460.40625 299.152344 460.472656 302.082031 C 460.476562 302.128906 460.621094 306.992188 460.507812 311.890625 C 460.269531 322.078125 459.191406 322.472656 458.671875 322.660156 C 458.589844 322.6875 458.492188 322.710938 458.386719 322.710938 " fill-opacity="1" fill-rule="nonzero"/><path fill="#f33d00" d="M 474.847656 368.785156 L 467.285156 369.082031 C 456.816406 368.820312 447.5625 356.308594 448.558594 341.601562 L 450.144531 318.078125 L 494.640625 317.722656 C 498.589844 317.707031 501.898438 321.226562 501.625 325.167969 L 500.253906 345.035156 C 499.351562 358.402344 488.242188 368.785156 474.847656 368.785156 " fill-opacity="1" fill-rule="nonzero"/><path fill="#ffffff" d="M 467.558594 368.414062 C 452.816406 368.414062 441.15625 355.941406 442.152344 341.234375 L 443.691406 318.429688 L 490.738281 318.429688 C 492.902344 318.429688 494.613281 320.261719 494.46875 322.417969 L 492.964844 344.667969 C 492.058594 358.035156 480.957031 368.414062 467.558594 368.414062 " fill-opacity="1" fill-rule="nonzero"/><path fill="#211d1d" d="M 467.558594 368.867188 C 461.273438 368.867188 455.214844 366.589844 450.496094 362.457031 C 445.84375 358.382812 442.792969 352.792969 441.910156 346.714844 C 441.875 346.46875 442.046875 346.242188 442.292969 346.207031 C 442.539062 346.167969 442.769531 346.339844 442.804688 346.585938 C 444.578125 358.773438 455.21875 367.964844 467.558594 367.964844 C 480.667969 367.964844 491.628906 357.71875 492.511719 344.636719 L 494.027344 322.273438 C 494.085938 321.382812 493.785156 320.535156 493.175781 319.886719 C 492.570312 319.238281 491.746094 318.878906 490.855469 318.878906 L 447.375 318.878906 C 445.550781 318.878906 444.019531 320.308594 443.894531 322.132812 L 443.683594 325.25 C 443.667969 325.5 443.449219 325.6875 443.203125 325.671875 C 442.957031 325.65625 442.765625 325.4375 442.78125 325.191406 L 442.992188 322.074219 C 443.148438 319.777344 445.074219 317.976562 447.375 317.976562 L 490.855469 317.976562 C 491.996094 317.976562 493.054688 318.4375 493.835938 319.269531 C 494.617188 320.105469 495.003906 321.191406 494.925781 322.332031 L 493.414062 344.699219 C 492.5 358.25 481.140625 368.867188 467.558594 368.867188 " fill-opacity="1" fill-rule="nonzero"/><path fill="#211d1d" d="M 466.972656 353.988281 C 465.773438 353.988281 464.820312 352.972656 464.894531 351.777344 L 466.027344 334.046875 C 466.09375 332.953125 467.003906 332.101562 468.101562 332.101562 C 469.304688 332.101562 470.253906 333.113281 470.175781 334.3125 L 469.046875 352.039062 C 468.976562 353.136719 468.070312 353.988281 466.972656 353.988281 " fill-opacity="1" fill-rule="nonzero"/><path fill="#211d1d" d="M 475.359375 335.660156 C 475.359375 339.890625 471.929688 343.316406 467.699219 343.316406 C 463.472656 343.316406 460.042969 339.890625 460.042969 335.660156 C 460.042969 331.429688 463.472656 328 467.699219 328 C 471.929688 328 475.359375 331.429688 475.359375 335.660156 " fill-opacity="1" fill-rule="nonzero"/><path fill="#211d1d" d="M 401.839844 303.714844 C 402.289062 303.53125 403.929688 303.03125 404.9375 301.503906 C 405.648438 300.421875 406.183594 298.617188 405.378906 297.523438 C 405.179688 297.246094 404.519531 296.507812 401.398438 296.636719 C 397.441406 296.800781 394.660156 298.105469 394.660156 298.105469 C 388.214844 301.140625 386.855469 304.890625 381.597656 307.808594 C 374.867188 311.546875 371.582031 308.359375 368.65625 311.570312 C 363.902344 316.785156 365.71875 331.070312 375.070312 336.898438 C 381.390625 340.835938 391.28125 340.949219 395.757812 336.011719 C 403.0625 327.957031 396.386719 305.945312 401.839844 303.714844 " fill-opacity="1" fill-rule="nonzero"/><path fill="#ffffff" d="M 404.441406 413.613281 L 404.210938 422.136719 L 401.199219 422.460938 L 399.710938 413.289062 L 404.441406 413.613281 " fill-opacity="1" fill-rule="nonzero"/><path fill="#211d1d" d="M 400.246094 413.777344 L 401.578125 421.964844 L 403.769531 421.730469 L 403.976562 414.03125 Z M 401.199219 422.914062 C 400.980469 422.914062 400.789062 422.753906 400.753906 422.53125 L 399.265625 413.359375 C 399.242188 413.222656 399.285156 413.085938 399.375 412.984375 C 399.46875 412.882812 399.601562 412.824219 399.742188 412.835938 L 404.472656 413.160156 C 404.714844 413.175781 404.898438 413.378906 404.890625 413.621094 L 404.664062 422.148438 C 404.65625 422.375 404.484375 422.5625 404.257812 422.585938 L 401.25 422.910156 C 401.230469 422.910156 401.214844 422.914062 401.199219 422.914062 " fill-opacity="1" fill-rule="nonzero"/><path fill="#ffffff" d="M 421.523438 416.410156 L 422.007812 423.199219 L 418.027344 423.523438 L 416.605469 416.410156 L 421.523438 416.410156 " fill-opacity="1" fill-rule="nonzero"/><path fill="#211d1d" d="M 417.15625 416.859375 L 418.390625 423.042969 L 421.523438 422.785156 L 421.105469 416.859375 Z M 418.027344 423.976562 C 417.8125 423.976562 417.625 423.824219 417.585938 423.613281 L 416.164062 416.5 C 416.136719 416.367188 416.171875 416.226562 416.257812 416.121094 C 416.34375 416.019531 416.472656 415.957031 416.605469 415.957031 L 421.523438 415.957031 C 421.761719 415.957031 421.960938 416.140625 421.976562 416.378906 L 422.457031 423.167969 C 422.472656 423.414062 422.289062 423.628906 422.042969 423.648438 L 418.066406 423.976562 C 418.050781 423.976562 418.039062 423.976562 418.027344 423.976562 " fill-opacity="1" fill-rule="nonzero"/><path fill="#f33d00" d="M 416.964844 426.449219 C 416.6875 426.265625 416.519531 425.957031 416.511719 425.625 C 416.484375 424.628906 416.480469 422.507812 416.882812 421.710938 C 417.417969 420.652344 419.617188 422.125 419.617188 422.125 C 419.617188 422.125 420.90625 420.339844 421.65625 419.96875 C 422.046875 419.773438 424.332031 421.292969 426.632812 423.363281 C 429.15625 425.632812 430.296875 426.359375 430.835938 428.316406 C 431.09375 429.234375 430.417969 430.160156 429.46875 430.226562 C 427.152344 430.394531 422.476562 430.117188 416.964844 426.449219 " fill-opacity="1" fill-rule="nonzero"/><path fill="#211d1d" d="M 417.214844 426.074219 C 422.621094 429.671875 427.191406 429.9375 429.433594 429.777344 C 429.761719 429.753906 430.054688 429.585938 430.246094 429.316406 C 430.429688 429.058594 430.484375 428.738281 430.402344 428.4375 C 429.980469 426.917969 429.179688 426.214844 427.429688 424.675781 C 427.09375 424.378906 426.730469 424.058594 426.332031 423.699219 C 424.046875 421.644531 422.253906 420.523438 421.789062 420.410156 C 421.296875 420.714844 420.433594 421.765625 419.984375 422.390625 C 419.839844 422.585938 419.570312 422.636719 419.367188 422.5 C 418.824219 422.140625 417.867188 421.683594 417.433594 421.796875 C 417.359375 421.816406 417.320312 421.847656 417.285156 421.914062 C 417.035156 422.410156 416.914062 423.792969 416.964844 425.613281 C 416.96875 425.800781 417.0625 425.972656 417.214844 426.074219 Z M 428.449219 430.714844 C 425.867188 430.714844 421.605469 430.078125 416.714844 426.824219 C 416.316406 426.5625 416.070312 426.117188 416.058594 425.636719 C 416.023438 424.207031 416.066406 422.332031 416.480469 421.507812 C 416.632812 421.210938 416.882812 421.007812 417.203125 420.921875 C 417.949219 420.726562 418.949219 421.203125 419.503906 421.523438 C 419.9375 420.957031 420.820312 419.882812 421.457031 419.5625 C 422.472656 419.054688 426.480469 422.621094 426.9375 423.027344 C 427.332031 423.386719 427.695312 423.707031 428.027344 423.996094 C 429.800781 425.558594 430.777344 426.417969 431.273438 428.195312 C 431.429688 428.757812 431.324219 429.355469 430.984375 429.839844 C 430.636719 430.328125 430.097656 430.636719 429.5 430.675781 C 429.191406 430.699219 428.839844 430.714844 428.449219 430.714844 " fill-opacity="1" fill-rule="nonzero"/><path fill="#211d1d" d="M 427.296875 428.894531 C 424.855469 428.894531 420.933594 428.300781 417.066406 425.21875 C 416.871094 425.058594 416.839844 424.777344 416.996094 424.582031 C 417.152344 424.386719 417.4375 424.355469 417.632812 424.511719 C 423.441406 429.148438 429.5 427.800781 429.5625 427.785156 C 429.804688 427.730469 430.046875 427.878906 430.105469 428.125 C 430.160156 428.367188 430.007812 428.609375 429.769531 428.667969 C 429.667969 428.6875 428.742188 428.894531 427.296875 428.894531 " fill-opacity="1" fill-rule="nonzero"/><path fill="#f33d00" d="M 405.628906 424.207031 L 405.585938 419.539062 C 405.585938 419.539062 404.648438 418.125 403.367188 419.277344 C 403.367188 419.277344 402.179688 417.613281 399.976562 419.6875 C 399.976562 419.6875 396.878906 425.460938 395.507812 428.898438 C 395.140625 429.816406 395.796875 430.824219 396.789062 430.847656 C 398.210938 430.882812 400.046875 430.804688 400.851562 430.261719 C 402.101562 429.417969 404.246094 426.746094 405.179688 425.546875 C 405.476562 425.164062 405.632812 424.691406 405.628906 424.207031 " fill-opacity="1" fill-rule="nonzero"/><path fill="#211d1d" d="M 400.339844 419.964844 C 399.996094 420.613281 397.195312 425.890625 395.925781 429.066406 C 395.808594 429.367188 395.839844 429.695312 396.019531 429.964844 C 396.195312 430.230469 396.480469 430.390625 396.796875 430.398438 C 398.699219 430.441406 400.046875 430.261719 400.597656 429.890625 C 401.804688 429.070312 403.953125 426.386719 404.824219 425.269531 C 405.054688 424.96875 405.183594 424.59375 405.179688 424.214844 L 405.136719 419.695312 C 405.019531 419.5625 404.769531 419.320312 404.460938 419.28125 C 404.210938 419.25 403.945312 419.363281 403.667969 419.613281 C 403.574219 419.699219 403.445312 419.738281 403.316406 419.726562 C 403.191406 419.710938 403.074219 419.644531 403 419.539062 C 402.992188 419.527344 402.699219 419.148438 402.164062 419.101562 C 401.632812 419.054688 401.007812 419.355469 400.339844 419.964844 Z M 397.351562 431.304688 C 397.164062 431.304688 396.972656 431.304688 396.777344 431.300781 C 396.167969 431.285156 395.601562 430.972656 395.265625 430.464844 C 394.925781 429.949219 394.859375 429.300781 395.089844 428.730469 C 396.453125 425.3125 399.546875 419.53125 399.578125 419.472656 C 399.601562 419.429688 399.632812 419.390625 399.667969 419.359375 C 400.566406 418.511719 401.445312 418.125 402.269531 418.203125 C 402.777344 418.253906 403.160156 418.476562 403.40625 418.679688 C 403.785156 418.433594 404.179688 418.335938 404.582031 418.386719 C 405.414062 418.496094 405.910156 419.210938 405.960938 419.292969 C 406.011719 419.363281 406.035156 419.449219 406.039062 419.535156 L 406.082031 424.207031 C 406.085938 424.789062 405.890625 425.363281 405.535156 425.824219 C 404.425781 427.253906 402.371094 429.78125 401.101562 430.636719 C 400.445312 431.082031 399.183594 431.304688 397.351562 431.304688 " fill-opacity="1" fill-rule="nonzero"/><path fill="#211d1d" d="M 403.367188 422.242188 C 403.117188 422.242188 402.917969 422.042969 402.917969 421.792969 L 402.914062 419.277344 C 402.914062 419.027344 403.117188 418.824219 403.367188 418.824219 C 403.617188 418.824219 403.816406 419.027344 403.816406 419.277344 L 403.820312 421.792969 C 403.820312 422.042969 403.617188 422.242188 403.367188 422.242188 " fill-opacity="1" fill-rule="nonzero"/><path fill="#211d1d" d="M 422.734375 416.792969 C 422.734375 416.792969 423.871094 399.65625 422.007812 384.238281 C 420.144531 368.820312 413.214844 346.804688 413.214844 346.804688 C 413.214844 346.804688 405.757812 346.464844 400.332031 347.195312 C 394.90625 347.925781 392.757812 347.175781 392.757812 347.175781 C 392.757812 347.175781 388.707031 351.8125 389.035156 360.535156 C 389.367188 369.253906 398.820312 406.042969 398.460938 414.675781 C 398.460938 414.675781 401.640625 416.273438 405.757812 415.480469 L 404.054688 365.902344 C 404.054688 365.902344 407.582031 376.109375 409.242188 383.097656 C 410.59375 388.796875 412.9375 392.488281 412.9375 392.488281 C 412.9375 392.488281 412.839844 405.738281 415.878906 416.734375 C 415.878906 416.734375 419.472656 417.859375 422.734375 416.792969 " fill-opacity="1" fill-rule="nonzero"/><path fill="#ffffff" d="M 416.773438 398.625 C 416.628906 398.625 416.488281 398.554688 416.398438 398.429688 L 413.796875 394.640625 C 413.65625 394.4375 413.707031 394.15625 413.914062 394.015625 C 414.121094 393.871094 414.398438 393.925781 414.542969 394.128906 L 417.144531 397.917969 C 417.285156 398.125 417.234375 398.40625 417.027344 398.546875 C 416.949219 398.601562 416.859375 398.625 416.773438 398.625 " fill-opacity="1" fill-rule="nonzero"/><path fill="#ffffff" d="M 399.265625 389.414062 C 398.324219 389.414062 397.125 389.230469 396.125 388.484375 C 395.921875 388.335938 395.882812 388.054688 396.03125 387.851562 C 396.179688 387.652344 396.460938 387.613281 396.660156 387.757812 C 398.265625 388.949219 400.617188 388.367188 400.640625 388.363281 C 400.882812 388.300781 401.128906 388.445312 401.191406 388.6875 C 401.253906 388.929688 401.105469 389.175781 400.863281 389.234375 C 400.808594 389.25 400.152344 389.414062 399.265625 389.414062 " fill-opacity="1" fill-rule="nonzero"/><path fill="#f33d00" d="M 388.761719 350.300781 C 389.644531 351.289062 391.4375 351.117188 394.980469 350.726562 C 400.519531 350.113281 401.46875 348.867188 405.046875 348.511719 C 411.425781 347.886719 414.046875 351.300781 416.328125 349.730469 C 417.71875 348.773438 418.863281 346.054688 416.804688 337.667969 C 416.136719 334.492188 415.476562 331.285156 414.835938 328.039062 C 413.949219 323.578125 413.113281 319.164062 412.320312 314.800781 C 407.886719 314.417969 404.117188 314.59375 401.261719 314.894531 C 397.535156 315.285156 394.714844 315.949219 393.5625 316.238281 C 390.738281 316.945312 388.320312 317.800781 386.234375 318.640625 C 388.351562 321.714844 387.292969 325.894531 389.410156 328.96875 C 389.371094 331.304688 387.117188 348.460938 388.761719 350.300781 " fill-opacity="1" fill-rule="nonzero"/><path fill="#ffffff" d="M 436.625 309.605469 C 436.625 309.605469 439.996094 306.480469 440.953125 305.683594 C 442.046875 304.777344 439.550781 304.480469 436.351562 307.410156 L 436.625 309.605469 " fill-opacity="1" fill-rule="nonzero"/><path fill="#211d1d" d="M 436.828125 307.585938 L 436.964844 308.675781 C 437.898438 307.816406 439.589844 306.261719 440.429688 305.535156 C 439.753906 305.660156 438.429688 306.167969 436.828125 307.585938 Z M 436.289062 310.535156 L 435.875 307.234375 L 436.046875 307.074219 C 438.1875 305.113281 440.28125 304.371094 441.167969 304.667969 C 441.433594 304.753906 441.609375 304.941406 441.65625 305.183594 C 441.695312 305.382812 441.652344 305.691406 441.242188 306.03125 C 440.304688 306.808594 436.96875 309.902344 436.933594 309.933594 L 436.289062 310.535156 " fill-opacity="1" fill-rule="nonzero"/><path fill="#ffffff" d="M 436.910156 308.972656 C 436.929688 309.144531 436.949219 309.316406 436.980469 309.488281 C 437.03125 309.777344 437.101562 310.476562 436.683594 310.921875 C 436.273438 311.359375 434.292969 312.4375 433.355469 312.933594 C 433.039062 313.101562 432.753906 313.332031 432.53125 313.613281 C 432.21875 314.003906 433.066406 318.148438 433.066406 318.148438 L 429.664062 316.929688 C 429.664062 316.929688 430.070312 311.28125 430.820312 308.984375 C 431.566406 306.6875 433.539062 305.597656 434.046875 305.671875 C 434.558594 305.742188 434.714844 306.71875 434.714844 306.71875 C 434.714844 306.71875 435.820312 305.867188 436.488281 306.320312 C 436.839844 306.5625 436.671875 306.964844 436.726562 307.359375 L 436.910156 308.972656 " fill-opacity="1" fill-rule="nonzero"/><path fill="#211d1d" d="M 430.140625 316.621094 L 432.46875 317.453125 C 431.773438 313.839844 432.0625 313.476562 432.175781 313.332031 C 432.441406 313.003906 432.769531 312.734375 433.144531 312.53125 C 435.210938 311.4375 436.15625 310.824219 436.355469 310.613281 C 436.640625 310.308594 436.566406 309.734375 436.535156 309.566406 C 436.503906 309.386719 436.480469 309.203125 436.460938 309.023438 L 436.277344 307.410156 C 436.257812 307.261719 436.261719 307.117188 436.265625 306.988281 C 436.273438 306.746094 436.261719 306.714844 436.234375 306.695312 C 435.953125 306.503906 435.285156 306.847656 434.988281 307.074219 L 434.386719 307.539062 L 434.269531 306.789062 C 434.214844 306.476562 434.066406 306.15625 433.976562 306.117188 C 433.644531 306.117188 431.914062 307.078125 431.25 309.125 C 430.632812 311.023438 430.242188 315.371094 430.140625 316.621094 Z M 433.667969 318.84375 L 429.191406 317.242188 L 429.214844 316.898438 C 429.230469 316.664062 429.636719 311.167969 430.390625 308.84375 C 431.191406 306.378906 433.367188 305.117188 434.109375 305.222656 C 434.566406 305.285156 434.828125 305.664062 434.980469 306.023438 C 435.460938 305.78125 436.167969 305.558594 436.742188 305.949219 C 437.191406 306.257812 437.179688 306.714844 437.167969 307.019531 C 437.164062 307.121094 437.160156 307.21875 437.171875 307.296875 L 437.355469 308.917969 C 437.375 309.082031 437.394531 309.246094 437.425781 309.410156 C 437.488281 309.757812 437.574219 310.636719 437.011719 311.234375 C 436.589844 311.683594 434.90625 312.621094 433.570312 313.332031 C 433.320312 313.464844 433.101562 313.636719 432.921875 313.851562 C 432.84375 314.296875 433.160156 316.351562 433.507812 318.058594 L 433.667969 318.84375 " fill-opacity="1" fill-rule="nonzero"/><path fill="#211d1d" d="M 433.847656 311.453125 C 433.753906 311.453125 433.660156 311.441406 433.566406 311.414062 C 433.070312 311.277344 432.527344 310.71875 432.480469 309.570312 C 432.417969 307.910156 434.425781 306.371094 434.511719 306.304688 C 434.710938 306.152344 434.992188 306.191406 435.144531 306.390625 C 435.296875 306.589844 435.257812 306.875 435.058594 307.023438 C 434.578125 307.390625 433.347656 308.550781 433.382812 309.535156 C 433.410156 310.195312 433.652344 310.5 433.808594 310.542969 C 433.898438 310.570312 433.972656 310.488281 434.023438 310.417969 C 434.363281 309.894531 434.296875 309.359375 434.296875 309.355469 C 434.261719 309.109375 434.433594 308.878906 434.679688 308.84375 C 434.925781 308.808594 435.152344 308.976562 435.1875 309.222656 C 435.195312 309.253906 435.316406 310.089844 434.777344 310.910156 C 434.550781 311.257812 434.210938 311.453125 433.847656 311.453125 " fill-opacity="1" fill-rule="nonzero"/><path fill="#f33d00" d="M 428.605469 315.617188 C 430.367188 316.007812 432.320312 316.617188 433.773438 317.421875 C 434.207031 319.574219 434.078125 323.371094 432.324219 328.121094 C 431.59375 330.089844 430.734375 332.40625 428.824219 333.640625 C 425.167969 336.003906 418.488281 333.859375 412.488281 328.28125 C 412.433594 323.789062 412.375 319.296875 412.320312 314.800781 C 413.886719 315.335938 415.28125 316.273438 416.363281 317.523438 L 418.253906 319.714844 C 419.957031 322.78125 422.234375 324.886719 423.984375 324.503906 C 425.414062 324.1875 426.195312 322.140625 427.761719 318.050781 C 428.566406 315.941406 428.257812 316.925781 428.605469 315.617188 " fill-opacity="1" fill-rule="nonzero"/><path fill="#ffffff" d="M 405.082031 315.152344 C 403.679688 314.921875 402.671875 313.671875 402.746094 312.25 L 402.863281 310.046875 C 404.191406 309.941406 405.300781 309.304688 405.296875 308.886719 C 405.296875 308.679688 404.808594 306.675781 404.503906 305.847656 C 404.761719 305.636719 405.074219 305.058594 404.519531 304.703125 C 403.964844 304.347656 402.710938 302.09375 402.710938 302.09375 C 401.171875 300.300781 400.726562 302.824219 399.578125 303.035156 C 398.78125 303.183594 398.347656 303.667969 398.648438 304.707031 C 398.949219 305.75 398.378906 305.230469 397.792969 304.929688 C 397.203125 304.632812 396.808594 304.867188 397.128906 305.8125 C 397.449219 306.757812 398.621094 307.328125 398.621094 307.328125 L 399.175781 308.417969 L 398.007812 313.78125 C 397.785156 314.796875 397.058594 315.625 396.078125 315.972656 L 394.464844 316.546875 L 402.945312 320.988281 L 407.042969 315.472656 L 405.082031 315.152344 " fill-opacity="1" fill-rule="nonzero"/><path fill="#211d1d" d="M 395.589844 316.628906 L 402.8125 320.410156 L 406.238281 315.796875 L 405.011719 315.597656 C 403.375 315.328125 402.210938 313.882812 402.296875 312.226562 L 402.410156 310.019531 C 402.421875 309.792969 402.601562 309.613281 402.828125 309.59375 C 403.917969 309.507812 404.699219 309.054688 404.84375 308.851562 C 404.789062 308.507812 404.355469 306.753906 404.078125 306.003906 C 404.011719 305.820312 404.070312 305.617188 404.21875 305.496094 C 404.296875 305.433594 404.382812 305.289062 404.375 305.203125 C 404.375 305.1875 404.375 305.144531 404.277344 305.085938 C 403.683594 304.707031 402.675781 302.949219 402.34375 302.355469 C 402 301.964844 401.796875 301.90625 401.707031 301.90625 C 401.707031 301.90625 401.707031 301.90625 401.703125 301.90625 C 401.496094 301.90625 401.226562 302.214844 400.96875 302.515625 C 400.621094 302.921875 400.226562 303.375 399.65625 303.480469 C 399.367188 303.535156 399.171875 303.632812 399.082031 303.78125 C 398.953125 303.992188 399.011719 304.332031 399.082031 304.585938 C 399.164062 304.863281 399.3125 305.382812 398.957031 305.660156 C 398.621094 305.925781 398.242188 305.707031 397.875 305.492188 C 397.785156 305.441406 397.683594 305.382812 397.585938 305.335938 C 397.539062 305.308594 397.5 305.292969 397.464844 305.28125 C 397.472656 305.359375 397.492188 305.480469 397.554688 305.664062 C 397.808594 306.414062 398.808594 306.917969 398.820312 306.921875 C 398.90625 306.964844 398.980469 307.035156 399.023438 307.121094 L 399.578125 308.214844 C 399.625 308.308594 399.640625 308.414062 399.617188 308.515625 L 398.449219 313.878906 C 398.191406 315.050781 397.363281 315.996094 396.230469 316.398438 Z M 402.945312 321.441406 C 402.875 321.441406 402.804688 321.425781 402.734375 321.390625 L 394.257812 316.949219 C 394.097656 316.863281 394.003906 316.695312 394.015625 316.515625 C 394.027344 316.335938 394.144531 316.183594 394.3125 316.125 L 395.925781 315.546875 C 396.761719 315.25 397.375 314.554688 397.566406 313.6875 L 398.703125 308.480469 L 398.285156 307.660156 C 397.929688 307.457031 397.007812 306.867188 396.699219 305.957031 C 396.476562 305.296875 396.523438 304.820312 396.84375 304.546875 C 397.007812 304.402344 397.371094 304.210938 397.996094 304.527344 C 398.050781 304.554688 398.105469 304.585938 398.160156 304.617188 C 398.046875 304.09375 398.097656 303.652344 398.3125 303.304688 C 398.542969 302.933594 398.941406 302.695312 399.496094 302.59375 C 399.753906 302.546875 400.023438 302.230469 400.285156 301.925781 C 400.65625 301.492188 401.082031 301.003906 401.703125 301.003906 C 401.707031 301.003906 401.707031 301.003906 401.707031 301.003906 C 402.152344 301.003906 402.59375 301.265625 403.054688 301.796875 C 403.078125 301.824219 403.09375 301.847656 403.109375 301.875 C 403.683594 302.910156 404.476562 304.140625 404.761719 304.324219 C 405.074219 304.523438 405.257812 304.816406 405.277344 305.148438 C 405.292969 305.445312 405.179688 305.734375 405.015625 305.953125 C 405.316406 306.875 405.746094 308.609375 405.75 308.882812 C 405.757812 309.632812 404.546875 310.257812 403.292969 310.449219 L 403.195312 312.273438 C 403.136719 313.46875 403.976562 314.511719 405.15625 314.707031 L 407.113281 315.027344 C 407.269531 315.050781 407.402344 315.15625 407.460938 315.300781 C 407.519531 315.449219 407.496094 315.613281 407.402344 315.742188 L 403.308594 321.257812 C 403.21875 321.375 403.085938 321.441406 402.945312 321.441406 " fill-opacity="1" fill-rule="nonzero"/><path fill="#211d1d" d="M 402.378906 310.554688 C 401.265625 310.554688 400.574219 309.746094 400.34375 309.25 C 400.238281 309.023438 400.335938 308.753906 400.5625 308.648438 C 400.789062 308.546875 401.054688 308.640625 401.160156 308.867188 C 401.214844 308.972656 401.679688 309.863281 402.757812 309.605469 C 403 309.546875 403.242188 309.699219 403.300781 309.941406 C 403.359375 310.183594 403.210938 310.425781 402.964844 310.484375 C 402.757812 310.53125 402.5625 310.554688 402.378906 310.554688 " fill-opacity="1" fill-rule="nonzero"/><path fill="#ffffff" d="M 384.175781 346.109375 L 388.945312 350.441406 L 390.8125 347.433594 L 396.179688 346.109375 C 396.179688 346.109375 395.972656 347.570312 393.21875 347.929688 L 397.660156 347.832031 C 397.660156 347.832031 397 349.085938 394.226562 348.933594 L 397.082031 349.421875 C 397.082031 349.421875 395.230469 349.835938 394.339844 350.222656 C 393.445312 350.605469 393.445312 350.605469 393.445312 350.605469 C 393.445312 350.605469 392.539062 351.164062 391.941406 351.847656 C 391.34375 352.527344 390.386719 353.285156 389.097656 353.511719 C 387.808594 353.738281 381.664062 350.574219 381.664062 350.574219 L 384.175781 346.109375 " fill-opacity="1" fill-rule="nonzero"/><path fill="#211d1d" d="M 382.289062 350.386719 C 384.777344 351.640625 388.28125 353.199219 389.019531 353.066406 C 390.308594 352.839844 391.191406 352.019531 391.601562 351.550781 C 392.234375 350.824219 393.167969 350.246094 393.207031 350.222656 C 393.226562 350.207031 393.246094 350.199219 393.265625 350.191406 L 394.160156 349.804688 C 394.386719 349.707031 394.664062 349.613281 394.960938 349.519531 L 394.152344 349.382812 C 393.914062 349.339844 393.75 349.125 393.777344 348.886719 C 393.804688 348.648438 394.011719 348.476562 394.25 348.484375 C 395.0625 348.527344 395.671875 348.445312 396.117188 348.316406 L 393.226562 348.378906 C 393 348.378906 392.785156 348.203125 392.769531 347.960938 C 392.75 347.722656 392.921875 347.511719 393.160156 347.480469 C 394.105469 347.359375 394.703125 347.105469 395.082031 346.84375 L 391.097656 347.828125 L 389.328125 350.679688 C 389.257812 350.792969 389.140625 350.871094 389.007812 350.890625 C 388.875 350.910156 388.742188 350.867188 388.640625 350.777344 L 384.292969 346.824219 Z M 388.980469 353.972656 C 387.363281 353.972656 382.460938 351.492188 381.457031 350.976562 C 381.347656 350.917969 381.265625 350.820312 381.230469 350.703125 C 381.195312 350.585938 381.210938 350.457031 381.269531 350.351562 L 383.78125 345.890625 C 383.851562 345.769531 383.96875 345.6875 384.101562 345.664062 C 384.238281 345.640625 384.378906 345.683594 384.480469 345.777344 L 388.847656 349.746094 L 390.429688 347.195312 C 390.492188 347.097656 390.589844 347.023438 390.703125 346.996094 L 396.070312 345.671875 C 396.21875 345.636719 396.371094 345.675781 396.480469 345.773438 C 396.59375 345.875 396.648438 346.027344 396.625 346.175781 C 396.621094 346.21875 396.519531 346.835938 395.8125 347.421875 L 397.652344 347.378906 C 397.8125 347.378906 397.960938 347.457031 398.046875 347.59375 C 398.128906 347.730469 398.136719 347.902344 398.0625 348.042969 C 398.042969 348.078125 397.773438 348.566406 396.976562 348.945312 L 397.15625 348.976562 C 397.367188 349.011719 397.523438 349.195312 397.53125 349.410156 C 397.535156 349.625 397.386719 349.816406 397.179688 349.863281 C 397.160156 349.867188 395.359375 350.273438 394.515625 350.636719 L 393.65625 351.003906 C 393.507812 351.097656 392.769531 351.585938 392.28125 352.144531 C 391.792969 352.703125 390.738281 353.683594 389.175781 353.957031 C 389.117188 353.964844 389.050781 353.972656 388.980469 353.972656 " fill-opacity="1" fill-rule="nonzero"/><path fill="#f33d00" d="M 381.789062 351.5625 L 385.75 346.109375 C 385.75 346.109375 377.171875 336.742188 392.101562 328.96875 L 386.234375 318.640625 C 386.234375 318.640625 374.296875 325.59375 374.519531 336.742188 C 374.738281 347.890625 381.789062 351.5625 381.789062 351.5625 " fill-opacity="1" fill-rule="nonzero"/><path fill="#211d1d" d="M 515.5625 265.742188 C 515.484375 265.742188 515.402344 265.71875 515.328125 265.675781 L 513.714844 264.6875 C 513.503906 264.554688 513.433594 264.277344 513.566406 264.066406 C 513.695312 263.851562 513.972656 263.785156 514.1875 263.914062 L 515.800781 264.90625 C 516.011719 265.035156 516.078125 265.3125 515.949219 265.527344 C 515.863281 265.667969 515.71875 265.742188 515.5625 265.742188 " fill-opacity="1" fill-rule="nonzero"/><path fill="#211d1d" d="M 521.207031 269.207031 C 521.128906 269.207031 521.046875 269.183594 520.972656 269.140625 L 519.359375 268.152344 C 519.144531 268.019531 519.082031 267.742188 519.210938 267.527344 C 519.339844 267.316406 519.617188 267.25 519.832031 267.378906 L 521.445312 268.371094 C 521.65625 268.5 521.722656 268.777344 521.59375 268.988281 C 521.507812 269.128906 521.359375 269.207031 521.207031 269.207031 " fill-opacity="1" fill-rule="nonzero"/><path fill="#211d1d" d="M 515.375 270.625 C 515.292969 270.625 515.214844 270.601562 515.140625 270.558594 C 514.925781 270.429688 514.859375 270.152344 514.988281 269.9375 L 515.96875 268.320312 C 516.097656 268.105469 516.375 268.035156 516.585938 268.164062 C 516.800781 268.292969 516.871094 268.574219 516.738281 268.785156 L 515.761719 270.40625 C 515.675781 270.542969 515.527344 270.625 515.375 270.625 " fill-opacity="1" fill-rule="nonzero"/><path fill="#211d1d" d="M 518.804688 264.957031 C 518.726562 264.957031 518.644531 264.933594 518.570312 264.890625 C 518.359375 264.761719 518.289062 264.480469 518.417969 264.269531 L 519.398438 262.648438 C 519.527344 262.4375 519.804688 262.367188 520.015625 262.496094 C 520.230469 262.628906 520.300781 262.902344 520.167969 263.117188 L 519.191406 264.738281 C 519.105469 264.875 518.957031 264.957031 518.804688 264.957031 " fill-opacity="1" fill-rule="nonzero"/><path fill="#211d1d" d="M 444.480469 198.304688 C 444.273438 198.304688 444.089844 198.164062 444.039062 197.957031 C 443.980469 197.714844 444.128906 197.472656 444.375 197.414062 L 446.214844 196.972656 C 446.457031 196.914062 446.699219 197.0625 446.757812 197.304688 C 446.8125 197.546875 446.664062 197.789062 446.425781 197.847656 L 444.585938 198.289062 C 444.546875 198.296875 444.511719 198.304688 444.480469 198.304688 " fill-opacity="1" fill-rule="nonzero"/><path fill="#211d1d" d="M 450.917969 196.757812 C 450.710938 196.757812 450.527344 196.621094 450.476562 196.414062 C 450.417969 196.171875 450.570312 195.925781 450.8125 195.867188 L 452.652344 195.429688 C 452.894531 195.371094 453.136719 195.519531 453.195312 195.761719 C 453.253906 196.003906 453.105469 196.25 452.863281 196.304688 L 451.023438 196.746094 C 450.984375 196.757812 450.953125 196.757812 450.917969 196.757812 " fill-opacity="1" fill-rule="nonzero"/><path fill="#211d1d" d="M 449.632812 201.445312 C 449.433594 201.445312 449.25 201.308594 449.195312 201.101562 L 448.746094 199.265625 C 448.683594 199.023438 448.832031 198.777344 449.074219 198.71875 C 449.316406 198.660156 449.5625 198.804688 449.621094 199.046875 L 450.074219 200.886719 C 450.132812 201.128906 449.984375 201.375 449.742188 201.433594 C 449.707031 201.441406 449.671875 201.445312 449.632812 201.445312 " fill-opacity="1" fill-rule="nonzero"/><path fill="#211d1d" d="M 448.050781 195.011719 C 447.851562 195.011719 447.664062 194.875 447.613281 194.671875 L 447.164062 192.832031 C 447.101562 192.589844 447.25 192.34375 447.496094 192.285156 C 447.738281 192.226562 447.980469 192.375 448.039062 192.617188 L 448.492188 194.453125 C 448.550781 194.695312 448.402344 194.941406 448.160156 195 C 448.125 195.011719 448.089844 195.011719 448.050781 195.011719 " fill-opacity="1" fill-rule="nonzero"/><path fill="#211d1d" d="M 345.972656 417.578125 C 345.910156 417.578125 345.847656 417.566406 345.789062 417.539062 C 333.628906 412.078125 322.882812 404.976562 313.84375 396.429688 C 313.664062 396.257812 313.65625 395.972656 313.828125 395.789062 C 314 395.609375 314.285156 395.601562 314.464844 395.773438 C 323.425781 404.25 334.089844 411.296875 346.160156 416.714844 C 346.386719 416.816406 346.488281 417.085938 346.386719 417.3125 C 346.308594 417.480469 346.144531 417.578125 345.972656 417.578125 " fill-opacity="1" fill-rule="nonzero"/><path fill="#211d1d" d="M 365.484375 419.15625 C 365.445312 419.15625 365.410156 419.152344 365.371094 419.140625 C 351.492188 415.589844 339.390625 409.167969 324.917969 397.671875 C 324.722656 397.515625 324.691406 397.234375 324.84375 397.039062 C 325 396.84375 325.285156 396.808594 325.480469 396.964844 C 339.847656 408.375 351.847656 414.746094 365.59375 418.269531 C 365.835938 418.328125 365.980469 418.574219 365.921875 418.816406 C 365.867188 419.019531 365.683594 419.15625 365.484375 419.15625 " fill-opacity="1" fill-rule="nonzero"/><path fill="#211d1d" d="M 366.726562 202.605469 C 366.21875 202.605469 365.71875 202.46875 365.273438 202.199219 C 364.636719 201.808594 364.1875 201.195312 364.011719 200.46875 C 363.648438 198.96875 364.570312 197.453125 366.070312 197.089844 C 366.3125 197.035156 366.554688 197.179688 366.613281 197.421875 C 366.675781 197.664062 366.523438 197.910156 366.28125 197.96875 C 365.269531 198.214844 364.644531 199.242188 364.890625 200.253906 C 365.007812 200.746094 365.3125 201.164062 365.746094 201.425781 C 366.175781 201.691406 366.6875 201.769531 367.175781 201.648438 C 367.667969 201.53125 368.085938 201.226562 368.347656 200.792969 C 368.609375 200.363281 368.691406 199.851562 368.570312 199.359375 C 368.511719 199.121094 368.660156 198.875 368.902344 198.816406 C 369.144531 198.757812 369.390625 198.90625 369.449219 199.148438 C 369.625 199.875 369.507812 200.625 369.117188 201.265625 C 368.730469 201.902344 368.117188 202.347656 367.390625 202.527344 C 367.167969 202.582031 366.945312 202.605469 366.726562 202.605469 " fill-opacity="1" fill-rule="nonzero"/><path fill="#211d1d" d="M 375.933594 196.90625 C 375.757812 196.90625 375.59375 196.804688 375.519531 196.632812 C 375.421875 196.40625 375.527344 196.140625 375.757812 196.042969 C 390.875 189.566406 406.695312 186.929688 422.789062 188.214844 C 427.375 188.582031 431.964844 189.273438 436.433594 190.273438 C 436.679688 190.328125 436.832031 190.570312 436.777344 190.8125 C 436.722656 191.058594 436.480469 191.210938 436.238281 191.15625 C 431.808594 190.164062 427.261719 189.476562 422.71875 189.113281 C 406.773438 187.84375 391.09375 190.453125 376.113281 196.871094 C 376.054688 196.898438 375.992188 196.90625 375.933594 196.90625 " fill-opacity="1" fill-rule="nonzero"/><path fill="#211d1d" d="M 388.652344 197.390625 C 388.457031 197.390625 388.273438 197.257812 388.21875 197.058594 C 388.152344 196.820312 388.292969 196.570312 388.53125 196.503906 C 399.730469 193.378906 411.253906 192.257812 422.789062 193.179688 C 423.675781 193.25 424.578125 193.335938 425.472656 193.429688 C 425.722656 193.457031 425.902344 193.679688 425.875 193.925781 C 425.847656 194.175781 425.625 194.355469 425.378906 194.328125 C 424.492188 194.234375 423.597656 194.148438 422.71875 194.078125 C 411.292969 193.167969 399.871094 194.273438 388.773438 197.371094 C 388.734375 197.382812 388.691406 197.390625 388.652344 197.390625 " fill-opacity="1" fill-rule="nonzero"/><path fill="#211d1d" d="M 311.457031 389.574219 C 310.679688 389.574219 310.042969 390.207031 310.042969 390.988281 C 310.042969 391.765625 310.679688 392.402344 311.457031 392.402344 C 312.238281 392.402344 312.871094 391.765625 312.871094 390.988281 C 312.871094 390.207031 312.238281 389.574219 311.457031 389.574219 Z M 311.457031 393.300781 C 310.179688 393.300781 309.140625 392.265625 309.140625 390.988281 C 309.140625 389.710938 310.179688 388.671875 311.457031 388.671875 C 312.734375 388.671875 313.773438 389.710938 313.773438 390.988281 C 313.773438 392.265625 312.734375 393.300781 311.457031 393.300781 " fill-opacity="1" fill-rule="nonzero"/><g clip-path="url(#69fcbaa747)"><path fill="#ffab99" d="M 450.46875 110.785156 C 451.765625 110.835938 452.785156 111.898438 452.785156 113.199219 L 452.785156 131.042969 C 452.785156 150.796875 440.363281 168.410156 421.804688 175.039062 C 421.535156 175.136719 421.230469 175.136719 420.964844 175.039062 C 411.753906 171.738281 404.054688 165.753906 398.628906 158.144531 C 393.132812 150.402344 389.980469 140.996094 389.980469 131.042969 L 389.980469 113.199219 C 389.980469 111.898438 391 110.835938 392.296875 110.785156 C 397.589844 110.582031 410.863281 109.636719 420.359375 105.289062 C 421.015625 104.984375 421.75 104.984375 422.40625 105.289062 C 431.902344 109.636719 445.175781 110.582031 450.46875 110.785156 " fill-opacity="1" fill-rule="nonzero"/></g><path fill="#f33d00" d="M 421.855469 170.191406 C 421.554688 170.308594 421.214844 170.308594 420.914062 170.191406 C 413.523438 167.148438 407.210938 162.105469 402.5625 155.515625 C 397.492188 148.296875 394.8125 139.804688 394.8125 130.953125 L 394.8125 116.378906 C 394.8125 115.738281 395.296875 115.207031 395.929688 115.164062 C 402.265625 114.714844 412.59375 113.46875 420.941406 109.980469 C 421.222656 109.863281 421.542969 109.863281 421.828125 109.980469 C 430.171875 113.46875 440.5 114.714844 446.839844 115.164062 C 447.46875 115.207031 447.953125 115.738281 447.953125 116.378906 L 447.953125 130.953125 C 447.953125 148.199219 437.539062 163.742188 421.855469 170.191406 " fill-opacity="1" fill-rule="nonzero"/><path fill="#fefefe" d="M 422.519531 141.988281 L 424.523438 145.960938 C 424.710938 146.328125 425.0625 146.585938 425.476562 146.640625 L 429.957031 147.277344 C 431 147.429688 431.414062 148.679688 430.660156 149.394531 L 427.417969 152.492188 C 427.121094 152.773438 426.984375 153.183594 427.054688 153.589844 L 427.816406 157.957031 C 427.996094 158.972656 426.914062 159.746094 425.976562 159.265625 L 421.972656 157.203125 C 421.605469 157.015625 421.160156 157.015625 420.792969 157.203125 L 416.789062 159.265625 C 415.855469 159.746094 414.769531 158.972656 414.949219 157.957031 L 415.710938 153.589844 C 415.78125 153.183594 415.644531 152.773438 415.347656 152.492188 L 412.109375 149.394531 C 411.351562 148.679688 411.769531 147.429688 412.8125 147.277344 L 417.289062 146.640625 C 417.703125 146.585938 418.058594 146.328125 418.242188 145.960938 L 420.246094 141.988281 C 420.714844 141.0625 422.054688 141.0625 422.519531 141.988281 " fill-opacity="1" fill-rule="nonzero"/><path fill="#ffffff" d="M 402.058594 121.96875 L 404.472656 121.96875 C 405.140625 121.96875 405.683594 122.511719 405.683594 123.179688 C 405.683594 123.84375 406.222656 124.386719 406.890625 124.386719 C 407.554688 124.386719 408.097656 123.84375 408.097656 123.179688 C 408.097656 121.179688 406.472656 119.554688 404.472656 119.554688 L 402.058594 119.554688 C 400.058594 119.554688 398.433594 121.179688 398.433594 123.179688 L 398.433594 132.839844 C 398.433594 134.839844 400.058594 136.464844 402.058594 136.464844 L 404.472656 136.464844 C 406.472656 136.464844 408.097656 134.839844 408.097656 132.839844 L 408.097656 129.21875 C 408.097656 128.550781 407.554688 128.007812 406.890625 128.007812 L 404.472656 128.007812 C 403.808594 128.007812 403.265625 128.550781 403.265625 129.21875 C 403.265625 129.882812 403.808594 130.425781 404.472656 130.425781 L 405.683594 130.425781 L 405.683594 132.839844 C 405.683594 133.507812 405.140625 134.046875 404.472656 134.046875 L 402.058594 134.046875 C 401.394531 134.046875 400.851562 133.507812 400.851562 132.839844 L 400.851562 123.179688 C 400.851562 122.511719 401.394531 121.96875 402.058594 121.96875 " fill-opacity="1" fill-rule="nonzero"/><path fill="#ffffff" d="M 417.757812 130.425781 C 417.757812 132.425781 416.136719 134.046875 414.136719 134.046875 L 412.929688 134.046875 L 412.929688 121.96875 L 414.136719 121.96875 C 416.136719 121.96875 417.757812 123.59375 417.757812 125.59375 Z M 414.136719 119.554688 L 411.722656 119.554688 C 411.054688 119.554688 410.511719 120.097656 410.511719 120.761719 L 410.511719 135.257812 C 410.511719 135.921875 411.054688 136.464844 411.722656 136.464844 L 414.136719 136.464844 C 417.46875 136.464844 420.175781 133.757812 420.175781 130.425781 L 420.175781 125.59375 C 420.175781 122.261719 417.46875 119.554688 414.136719 119.554688 " fill-opacity="1" fill-rule="nonzero"/><path fill="#ffffff" d="M 426.214844 129.21875 L 425.007812 129.21875 L 425.007812 121.96875 L 426.214844 121.96875 C 428.214844 121.96875 429.835938 123.59375 429.835938 125.59375 C 429.835938 127.59375 428.214844 129.21875 426.214844 129.21875 Z M 426.214844 119.554688 L 423.796875 119.554688 C 423.132812 119.554688 422.589844 120.097656 422.589844 120.761719 L 422.589844 135.078125 C 422.589844 135.746094 423.132812 136.285156 423.796875 136.285156 C 424.464844 136.285156 425.007812 135.746094 425.007812 135.078125 L 425.007812 131.632812 L 426.214844 131.632812 C 429.546875 131.632812 432.253906 128.925781 432.253906 125.59375 C 432.253906 122.261719 429.546875 119.554688 426.214844 119.554688 " fill-opacity="1" fill-rule="nonzero"/><path fill="#ffffff" d="M 437.085938 128.007812 L 437.085938 121.96875 L 439.5 121.96875 C 440.832031 121.96875 441.914062 123.054688 441.914062 124.386719 L 441.914062 125.59375 C 441.914062 126.925781 440.832031 128.007812 439.5 128.007812 Z M 444.332031 125.59375 L 444.332031 124.386719 C 444.332031 121.71875 442.164062 119.554688 439.5 119.554688 L 435.875 119.554688 C 435.210938 119.554688 434.667969 120.097656 434.667969 120.761719 L 434.667969 135.078125 C 434.667969 135.746094 435.210938 136.285156 435.875 136.285156 C 436.542969 136.285156 437.085938 135.746094 437.085938 135.078125 L 437.085938 130.425781 L 439.5 130.425781 C 440.164062 130.425781 440.707031 130.96875 440.707031 131.632812 L 440.707031 135.257812 C 440.707031 135.921875 441.25 136.464844 441.914062 136.464844 C 442.582031 136.464844 443.125 135.921875 443.125 135.257812 L 443.125 131.632812 C 443.125 130.8125 442.839844 130.0625 442.378906 129.453125 C 443.550781 128.570312 444.332031 127.175781 444.332031 125.59375 " fill-opacity="1" fill-rule="nonzero"/></svg>